<svg width="990" height="800" viewBox="0 0 990 800" fill="none" xmlns="http://www.w3.org/2000/svg">
<path d="M239.255 589.637C249.486 585.806 259.585 581.616 270.282 576.289C266.577 576.68 264.719 574.269 262.665 573.443C259.557 571.985 256.568 570.249 253.727 568.251C249.379 565.569 245.301 562.378 241.068 559.473C236.66 556.853 232.703 553.427 229.371 549.346C227.143 546.308 223.104 545.148 220.354 542.143C215.829 537.199 211.271 532.367 206.936 527.181C201.738 519.76 197.25 511.785 193.543 503.378C188.854 494.038 185.199 484.13 182.653 473.86C178.685 461.253 175.723 448.301 173.799 435.144C172.247 422.738 169.947 410.472 169.3 397.899C168.855 389.238 166.985 380.674 166.12 372.023C165.733 368.154 165.304 364.289 164.93 360.419C163.758 348.299 164.498 336.089 163.525 323.939C162.911 316.268 163.226 308.613 161.941 300.867C160.846 294.147 160.203 287.349 160.018 280.527C159.964 278.65 158.873 277.304 158.515 275.678C158.257 274.506 157.638 273.022 159.178 271.781C160.64 270.602 161.729 271.356 162.785 271.991C169.901 276.821 177.499 280.758 185.434 283.727C195.936 287.288 206.756 289.636 217.713 290.734C225.098 291.539 232.518 291.916 239.94 291.864C247.994 292.297 256.068 291.869 264.045 290.586C271.668 288.944 279.21 286.881 286.64 284.406C296.404 280.721 306.089 276.931 315.589 272.443C323.824 268.551 331.791 264.015 340.382 260.857C347.294 258.317 353.887 254.577 360.765 251.757C370.176 247.899 379.507 243.711 389.125 240.574C401.33 236.593 413.678 232.999 426.011 229.599C438.772 225.797 451.883 223.547 465.103 222.892C475.275 222.159 485.477 223.706 495.074 227.436C497.814 228.613 499.423 230.28 497.187 233.194C495.833 234.96 497.061 236.037 497.622 237C501.516 243.695 505.282 250.52 509.696 256.802C512.378 260.619 515.312 264.269 518.023 268.098C519.749 270.538 519.605 272.751 517.355 274.337C515.136 275.901 512.623 276.684 510.59 273.703C502.332 261.96 495.11 249.401 489.019 236.191C488.574 235.205 487.896 234.363 487.054 233.752C486.212 233.142 485.236 232.783 484.226 232.714C469.125 230.739 453.819 231.795 439.071 235.829C424.044 239.498 409.099 243.413 394.347 248.272C380.617 252.622 367.137 257.85 353.977 263.929C337.604 271.711 321.249 279.585 304.599 286.619C288.763 293.733 271.903 297.789 254.779 298.602C243.411 298.785 232.043 298.293 220.724 297.128C210.708 296.112 200.764 294.379 190.958 291.941C181.933 289.515 173.313 285.571 165.412 280.253C166.543 286.792 167.728 292.463 168.464 298.203C169.345 305.083 169.862 312.019 170.503 318.933C171.48 329.471 171.142 340.065 172.01 350.648C172.994 362.65 174.662 374.552 175.698 386.539C176.563 396.548 178.489 406.447 179.892 416.404C181.129 425.192 182.532 434.025 184.491 442.571C185.979 451.989 188.273 461.236 191.343 470.192C192.952 474.023 193.287 479.139 194.975 482.804C198.054 491.452 201.639 499.878 205.709 508.031C209.053 515.439 213.391 522.269 218.582 528.296C223.066 532.225 227.032 536.87 231.856 540.524C235.07 542.958 238.489 545.545 241.673 548.247C250.127 555.309 259.237 561.394 268.857 566.403C275.869 570.117 283.091 573.743 290.48 576.831C296.426 579.315 302.427 581.814 308.309 584.569C313.304 586.616 318.418 588.304 323.616 589.625C330.565 591.756 337.626 593.507 344.467 595.98C347.992 596.802 351.555 597.419 355.141 597.828C365.81 600.738 376.756 602.284 387.757 602.435C392.045 602.575 396.321 602.989 400.564 603.675C406.242 604.327 412.047 603.552 417.771 603.901C428.106 604.532 438.468 604.642 448.8 605.115C452.861 605.301 457.389 605.345 461.576 605.259C466.32 604.736 471.103 604.797 475.834 605.442C481.249 606.654 486.891 605.27 492.477 606.388C500.201 607.934 508.035 608.408 515.785 610.409C521.575 611.904 527.342 613.535 532.933 615.587C537.253 617.283 541.319 619.662 544.997 622.649C548.143 625.115 551.787 626.284 555.053 628.403C559.081 631.017 562.875 633.93 566.629 636.917C571.859 640.17 576.791 643.956 581.358 648.223C582.631 649.702 583.859 648.935 585.132 647.598C592.715 639.627 601.278 632.774 608.37 624.262C614.6 616.786 622.378 611.23 628.798 603.965C632.993 598.266 637.711 593.045 642.881 588.383C647.653 584.876 649.885 579.323 654.628 575.82C658.752 572.878 662.147 568.88 664.511 564.18C665.071 562.981 666.324 562.171 667.233 561.156C671.965 555.872 676.788 550.651 681.58 545.473C685.149 540.86 689.082 536.594 693.334 532.722C695.167 531.325 696.062 527.897 698.117 526.301C702.96 522.543 705.408 516.151 710.775 513.077C713.259 511.655 712.33 508.098 715.088 506.395C719.751 502.501 723.907 497.941 727.444 492.84C730.816 489.345 733.968 485.61 736.879 481.659C741.943 475.068 747.412 468.857 753.25 463.068C757.274 457.677 761.972 452.923 767.209 448.943C769.666 446.872 771.782 444.363 773.465 441.523C777.118 436.79 782.059 433.367 785.601 428.75C790.133 423.394 794.915 418.294 799.928 413.469C801.756 411.444 803.411 409.243 804.873 406.895C807.27 403.152 811.628 402.597 813.79 398.742C817.262 392.554 824.392 390.173 827.572 383.346C828.936 380.418 833.036 380.538 835.483 378.109C838.036 374.905 841.019 372.137 844.331 369.896C846.536 368.742 846.805 366.568 844.297 365.056C839.681 362.274 836.302 357.592 831.435 355.229C824.158 351.117 816.292 348.366 808.171 347.092C803.618 346.588 799.038 346.429 794.464 346.615L790.414 346.631C781.04 347.827 771.789 349.965 762.779 353.017C756.54 355.374 749.993 356.355 743.787 358.787C740.585 360.042 737.191 360.726 733.884 361.668C732.388 361.465 730.868 361.675 729.466 362.279L710.142 365.215C708.393 365.33 706.551 364.512 704.922 365.83L695.404 366.106L690.574 366.319C688.06 365.802 685.489 365.683 682.943 365.967C672.338 365.871 661.764 365.13 651.19 364.354L645.49 364.319C637.585 364.174 629.736 362.854 622.162 360.395C611.97 357.848 602.402 352.959 594.102 346.057C593.097 345.287 591.606 344.224 592.388 342.487C592.558 342.118 592.802 341.795 593.102 341.543C593.403 341.291 593.752 341.115 594.124 341.03C594.496 340.944 594.881 340.951 595.25 341.049C595.619 341.148 595.963 341.335 596.256 341.597C601.793 345.225 608.037 347.199 613.695 350.531C617.533 352.101 621.555 353.078 625.644 353.431C637.741 356.163 650.084 357.402 662.437 357.125C668.767 357.099 675.118 358.142 681.426 357.858C695.643 357.67 709.828 356.345 723.866 353.897C738.695 350.841 752.886 345.627 767.415 341.612C775.402 338.962 783.648 337.331 791.984 336.755C808.116 335.325 824.315 338.455 839 345.838C846.92 350.241 853.986 356.253 859.816 363.547C861.107 365.224 861.421 367.53 863.546 368.825C864.134 369.551 864.516 370.447 864.645 371.403C864.774 372.359 864.646 373.337 864.275 374.216C863.234 376.728 860.859 378.837 859.187 378.107C853.653 375.688 851.814 381.098 848.748 383.349C844.341 386.583 840.603 390.873 836.45 394.539C835.225 395.62 834.059 396.24 833.494 398.227C832.779 400.167 831.416 401.744 829.677 402.644C824.342 405.355 821.378 410.827 817.039 414.63C811.884 419.148 807.996 424.993 802.773 429.481C795.355 435.856 789.539 444.269 781.63 450.038C779.907 451.295 781.229 452.965 779.98 454.09C778.13 455.755 776.274 457.456 774.51 459.206C767.946 465.717 762.152 473.123 755.762 479.767C750.403 485.338 745.71 491.638 739.672 497.281C745.031 498.504 750.195 499.811 755.406 500.841C764.081 502.606 772.64 504.981 781.031 507.95C786.637 509.898 792.332 511.688 797.939 513.595C806.008 516.338 814.284 517.96 822.416 520.282C823.926 520.761 825.406 521.345 826.846 522.031C829.622 523.246 829.359 525.022 827.956 527.134C824.032 533.381 819.392 539.062 814.148 544.04C810.439 547.391 807.381 551.578 803.782 555.088C794.66 563.984 785.661 573.071 776.056 581.319C772.115 584.156 768.379 587.316 764.882 590.77C759.847 596.744 753.253 600.278 747.843 605.627C741.95 611.202 735.766 616.404 729.321 621.207C723.295 625.904 716.75 629.825 711.101 635.124C708.926 636.991 706.6 638.642 704.151 640.055C690.81 648.552 679.336 659.995 665.886 668.347C656.646 674.085 647.221 679.419 637.852 684.883C630.327 689.271 622.969 694.118 615.715 699.04C607.12 704.871 598.573 710.794 589.949 716.585C582.012 721.683 574.717 727.874 568.246 735.003C564.557 739.221 561.39 739.357 558.115 734.878C552.023 727.841 544.876 721.976 536.976 717.53C529.523 711.699 522.374 705.423 515.561 698.734C511.96 695.582 508.053 692.829 504.194 690.041C499.184 686.518 493.926 683.428 488.469 680.801C482.174 676.865 475.428 673.846 468.406 671.82C465.307 671.228 462.085 669.636 458.879 668.657C450.241 666.515 441.508 664.861 432.713 663.701C425.684 662.386 418.52 661.086 411.304 660.47C405.296 659.982 399.334 658.971 393.475 657.447C387.482 655.852 381.357 656.138 375.395 654.536C366.992 652.277 358.438 650.718 349.998 648.525C344.542 647.108 338.692 645.925 333.564 644.146C325.003 642.686 316.605 640.267 308.505 636.926C306.975 635.993 304.767 636.455 303.092 635.702C294.08 631.872 284.896 628.541 275.573 625.721C270.544 624.084 265.46 622.645 260.447 620.957C251.953 618.097 243.497 615.146 235.251 611.452C227.379 608.226 219.285 605.677 211.044 603.829C205.936 602.507 200.856 601.055 195.76 599.679C194.021 598.951 192.184 598.542 190.322 598.467C189.914 598.53 189.499 598.497 189.105 598.369C188.711 598.242 188.346 598.023 188.038 597.728C187.729 597.433 187.483 597.069 187.316 596.661C187.15 596.253 187.066 595.811 187.072 595.365C186.988 593.056 188.779 593.195 190.297 593.18C192.749 593.156 195.2 593.087 197.652 593.037L201.701 593.292C203.349 593.103 205.049 594.1 206.658 593.038C209.466 593.087 212.288 593.354 215.076 593.129C218.566 592.848 222.168 594.228 225.549 592.351L225.505 592.398C227.671 591.767 230.101 593.302 232.118 591.45C232.69 591.526 233.271 591.47 233.822 591.285C234.373 591.099 234.881 590.789 235.313 590.374C236.637 590.191 238.187 591.427 239.255 589.637Z" fill="#212222"/>
<path d="M530.672 410.254C526.213 414.079 522.107 418.363 518.41 423.047C516.735 425.137 514.13 425.251 511.941 426.173C509.373 426.845 507.106 428.477 505.538 430.782C504.286 433.008 501.508 433.033 499.833 434.647C489.497 442.98 478.692 450.605 467.48 457.477C462.807 460.967 458.002 464.192 453.072 467.218C452.413 467.1 451.737 467.189 451.123 467.475C450.509 467.761 449.984 468.232 449.609 468.832C444.077 471.585 438.401 473.986 432.611 476.021C427.981 476.045 427.798 475.809 427.836 469.849C430.693 461.315 433.596 452.797 436.395 444.239C438.677 437.262 442.197 430.826 444.008 423.647C446.714 414.316 450.08 405.226 454.075 396.456C455.476 393.016 457.467 389.895 459.943 387.261C461.547 385.381 462.739 383.132 463.431 380.682C467.785 366.924 474.632 354.25 483.568 343.404C489.151 336.506 494.468 329.267 499.644 321.945C502.771 317.52 505.661 312.899 508.639 308.363C509.812 306.018 511.222 303.822 512.843 301.817L515.182 298.481C518.281 292.201 522.234 286.462 526.909 281.458C529.134 279.281 530.071 275.632 532.491 273.355C533.572 271.64 534.123 269.494 535.931 268.368C538.477 269.013 536.74 265.745 538.223 265.419L541.335 262.086C542.128 260.93 542.673 259.517 544.072 258.993C544.731 257.391 545.77 256.008 547.084 254.985C549.196 251.732 551.691 248.793 554.508 246.244C558.188 243.101 561.514 239.499 564.417 235.512C566.092 235.481 567.488 235.074 567.514 232.816C569.192 231.574 570.643 230.006 571.792 228.189L574.82 224.802C575.271 223.256 576.234 221.945 577.524 221.124C578.597 220.603 579.496 219.736 580.099 218.641C581.072 218.152 581.25 217.058 581.702 216.172L583.828 213.263C584.834 210.638 586.701 208.511 589.069 207.292L594.911 198.25C595.39 198.405 595.602 198.162 595.643 197.668L600.422 191.961C600.632 190.221 602.154 189.515 602.928 188.22C605.235 187.413 605.672 184.752 607.19 183.163C609.488 179.373 613.597 177.618 616 173.945L618.459 171.542C622.653 169.301 624.547 164.386 628.283 161.611C629.778 160.807 631.088 159.649 632.117 158.225C633.509 156.918 635.423 156.144 635.881 153.885C636.408 152.508 638.904 153.498 638.647 151.18C641.575 147.996 645.855 148.503 649.299 146.56C655.424 142.72 662.095 140.011 669.039 138.546C673.873 138.036 678.73 137.825 683.587 137.915C684.966 138.965 686.539 138.452 688.034 138.561L688.828 138.72C689.99 139.778 691.422 140.426 692.932 140.576C695.784 141.671 698.385 143.418 700.561 145.697C702.736 147.976 704.435 150.735 705.543 153.788C706.346 156.027 706.406 158.499 705.712 160.78C706.19 164.055 706.31 167.379 706.068 170.685C704.76 172.179 705.1 174.263 704.455 175.994L704.438 176.018C703.286 177.904 702.421 179.98 701.877 182.164C700.258 184.814 697.566 186.697 697.035 190.124L694.636 194.634C693.116 196.794 690.699 198.098 689.687 200.74C686.206 200.664 688.32 202.851 688.48 204.247C676.611 211.814 666.167 221.746 657.698 233.52L655.301 237.23L652.738 240.418C650.997 241.025 651.436 243.244 650.298 244.297C647.707 246.098 645.715 248.75 644.612 251.865C643.604 254.806 639.546 254.552 639.64 258.212L637.748 261.967C632.501 264.951 630.152 270.745 626.652 275.422L622.477 280.695C620.972 281.177 622.142 283.31 620.8 283.892C619.847 284.758 618.289 285.074 618.441 286.944C615.516 290.144 612.888 293.649 610.597 297.409C607.07 301.612 603.967 306.212 601.342 311.131C598.033 316.896 594.206 322.293 589.918 327.242C588.377 329.132 588.551 331.817 587.301 333.839C585.229 334.05 585.001 336.099 584.162 337.539C580.587 342.115 577.277 346.927 574.25 351.946C572.649 352.346 572.978 354.119 572.294 355.173C571.199 356.073 570.437 357.369 570.146 358.825L568.172 361.389C566.879 361.228 566.485 362.271 566.048 363.255C564.844 364.453 563.963 365.982 563.5 367.681C559.693 372.155 556.167 376.901 552.944 381.885C551.959 383.324 549.937 383.481 549.298 385.347L546.346 388.826C544.865 389.08 544.623 390.665 543.792 391.618L533.263 406.647C532.238 407.711 530.945 408.551 530.672 410.254ZM675.616 200.13C676.663 197.951 678.226 196.113 680.145 194.806C686.395 189.146 691.206 181.847 694.123 173.603C695.689 169.106 696.225 164.265 695.684 159.495C695.848 157.767 695.682 156.02 695.196 154.365C694.709 152.71 693.914 151.181 692.858 149.875C691.802 148.569 690.509 147.514 689.059 146.775C687.61 146.036 686.036 145.63 684.435 145.581C677.064 144.33 669.518 145.3 662.622 148.386C658.91 149.475 655.362 151.137 652.086 153.322C644.177 159.996 636.619 167.145 629.447 174.734C643.455 186.159 660.683 190.727 675.616 200.13V200.13ZM485.561 381.865C485.343 380.749 486.192 379.324 485.079 378.58C483.728 377.676 482.922 379.359 481.998 379.952C477.915 382.574 473.924 385.369 469.948 388.183C465.109 391.609 460.106 394.838 458.65 401.684C456.184 412.618 452.819 423.291 448.594 433.572C447.988 435.103 448.748 435.891 449.753 436.371C454.046 438.645 458.173 441.269 462.1 444.221C465.69 446.695 469.032 447.918 472.086 443.34C472.515 442.696 473.467 442.455 474.184 442.043C477.325 440.733 480.29 438.976 483.002 436.817C489.401 430.146 498.196 426.931 503.869 419.314C506.169 416.226 511.751 415.733 510.284 409.674C509.879 408.607 509.708 407.452 509.784 406.301C510.853 401.744 508.242 403.307 506.59 404.115C501.056 407.217 495.057 409.227 488.873 410.048C485.865 410.287 481.635 407.705 482.402 405.738C484.174 401.198 482.593 396.335 484.137 391.645C485.094 388.49 485.575 385.187 485.561 381.865V381.865Z" fill="#212222"/>
<path d="M367.935 367.574C364.887 369.87 361.396 371.381 357.728 371.989C354.06 372.597 350.312 372.287 346.771 371.083C345.329 370.797 343.991 370.08 342.905 369.012C341.82 367.943 341.032 366.567 340.63 365.038C339.092 359.132 339.315 352.848 341.268 347.088C343.22 341.327 346.802 336.384 351.501 332.965C355.253 329.252 359.971 326.886 365.009 326.189C370.047 325.492 375.16 326.498 379.652 329.07C382.198 330.914 384.24 333.466 385.564 336.46C386.888 339.453 387.445 342.778 387.177 346.085C386.475 349.039 387.922 348.414 389.1 348.055C391.291 347.387 393.352 346.226 395.539 345.537C405.391 342.746 415.818 343.582 425.184 347.914C429.912 349.284 434.917 349.017 439.498 347.149C444.079 345.28 448.005 341.905 450.729 337.495C454.833 331.198 457.983 324.231 460.061 316.857C461.86 310.33 464.257 304.087 466.234 297.665C466.685 296.2 467.032 293.915 469.214 294.105C471.244 294.282 471.515 296.389 471.876 297.968C473.071 305.043 472.704 312.324 470.805 319.216C469.259 325.115 466.968 330.755 463.999 335.974C460.436 342.797 455.125 348.354 448.711 351.971C443.378 355.725 437.057 357.478 430.718 356.961C425.603 356.51 420.566 355.335 415.733 353.466C407.391 350.853 398.471 351.455 390.492 355.168C383.639 357.36 382.675 364.524 379.097 369.374C374.307 376.025 368.455 381.689 361.82 386.098C355.673 390.485 349.139 394.2 342.315 397.188C332.758 401.32 322.984 404.832 313.042 407.704C308.246 408.891 303.563 410.602 298.797 411.937C283.736 416.157 268.687 420.43 253.573 424.416C249.237 425.362 244.849 426.01 240.437 426.354C239.314 426.49 237.843 426.668 237.762 424.603C237.689 422.743 238.579 422.163 240.181 421.811C261.741 417.072 282.587 409.378 303.918 403.681C317.133 400.005 330.004 395.006 342.366 388.747C351.262 384.136 359.488 378.138 366.781 370.942C367.206 370.538 367.245 369.657 367.935 367.574ZM367.722 334.888C366.026 334.892 364.354 335.335 362.848 336.181C359.251 338.243 356.141 341.178 353.76 344.757C351.379 348.336 349.791 352.462 349.121 356.814C348.087 361.4 349.905 363.761 354.351 364.204C358.541 364.456 362.684 363.153 366.099 360.509C370.459 357.483 376.579 356.64 376.78 348.354C377.005 339.083 375.51 335.4 367.722 334.888Z" fill="#212222"/>
<path d="M429.289 476.921C428.99 478.148 434.328 477.772 430.119 480.012C422.415 484.93 415.276 490.821 408.851 497.563C402.149 503.562 395.822 510.042 389.315 516.232C381.055 524.04 371.619 530.248 361.418 534.584C354.319 537.627 346.769 539.246 339.136 539.361C337.525 539.396 335.632 539.513 335.538 537.639C335.447 535.832 337.695 535.805 338.945 535.582C347.428 534.026 355.671 531.203 363.439 527.192C373.249 521.401 382.238 514.103 390.125 505.526C395.23 500.622 400.155 495.498 405.248 490.577C408.026 487.893 411.131 485.606 413.804 482.757C415.562 480.698 417.722 479.091 420.125 478.053C422.528 477.015 425.115 476.572 427.697 476.755L429.289 476.921Z" fill="#212222"/>
<path d="M225.548 592.354C222.166 594.23 218.564 592.85 215.075 593.132C212.286 593.357 209.464 593.089 206.656 593.04C212.92 592.173 219.244 591.943 225.548 592.354V592.354Z" fill="white"/>
<path d="M594.912 198.25L589.07 207.292C589.297 205.385 589.947 203.565 590.965 201.99C591.982 200.415 593.337 199.132 594.912 198.25V198.25Z" fill="white"/>
<path d="M429.289 476.923L427.697 476.757C427.431 474.448 425.688 472.104 427.834 469.852C427.796 475.811 427.979 476.048 432.609 476.023C431.734 477.328 430.43 476.774 429.289 476.923Z" fill="white"/>
<path d="M600.423 191.961L595.645 197.667C596.683 195.22 597.362 192.418 600.423 191.961Z" fill="white"/>
<path d="M622.477 280.694L626.651 275.422C626.704 278.523 624.726 279.735 622.477 280.694Z" fill="white"/>
<path d="M607.188 183.164C605.67 184.753 605.233 187.414 602.926 188.22C604.207 186.397 604.47 183.564 607.188 183.164Z" fill="white"/>
<path d="M688.481 204.247C688.321 202.851 686.207 200.664 689.688 200.74C689.245 201.893 691.872 204.286 688.481 204.247Z" fill="white"/>
<path d="M705.713 160.781C706.406 158.5 706.346 156.028 705.543 153.789C706.028 154.201 706.423 154.723 706.7 155.32C706.977 155.917 707.129 156.574 707.146 157.242C707.162 157.91 707.042 158.573 706.794 159.185C706.546 159.797 706.177 160.342 705.713 160.781Z" fill="white"/>
<path d="M701.875 182.164C702.42 179.98 703.284 177.906 704.436 176.02C704.443 178.49 704.246 180.859 701.875 182.164Z" fill="white"/>
<path d="M535.929 268.371C534.121 269.497 533.571 271.643 532.489 273.358C532.377 270.676 532.997 268.585 535.929 268.371Z" fill="white"/>
<path d="M632.119 158.227C631.089 159.651 629.78 160.808 628.285 161.613C629.008 159.745 629.988 158.22 632.119 158.227Z" fill="white"/>
<path d="M704.453 175.997C705.099 174.265 704.758 172.182 706.067 170.688C705.518 172.453 707.362 175.074 704.453 175.997Z" fill="white"/>
<path d="M232.117 591.45C230.1 593.302 227.67 591.767 225.504 592.398C227.505 590.419 229.92 591.827 232.117 591.45Z" fill="white"/>
<path d="M645.488 364.32L651.188 364.356C650.318 364.892 649.334 365.171 648.334 365.165C647.334 365.158 646.352 364.867 645.488 364.32V364.32Z" fill="white"/>
<path d="M638.646 151.18C638.903 153.498 636.407 152.509 635.88 153.886C635.174 151.026 638.06 152.485 638.646 151.18Z" fill="white"/>
<path d="M563.5 367.685C563.963 365.986 564.845 364.455 566.049 363.258C566.037 364.178 565.793 365.077 565.344 365.858C564.894 366.638 564.257 367.269 563.5 367.685V367.685Z" fill="white"/>
<path d="M694.637 194.636L697.036 190.125C697.05 192.137 697.364 194.338 694.637 194.636Z" fill="white"/>
<path d="M574.821 224.804L571.793 228.192C572.141 226.367 572.578 224.637 574.821 224.804Z" fill="white"/>
<path d="M549.301 385.349C549.94 383.483 551.961 383.325 552.947 381.887C552.832 384.404 551.03 384.832 549.301 385.349Z" fill="white"/>
<path d="M547.084 254.985C545.77 256.008 544.731 257.392 544.072 258.994C543.735 256.474 544.409 254.846 547.084 254.985Z" fill="white"/>
<path d="M541.334 262.088L538.223 265.421C538.582 263.566 539.094 261.879 541.334 262.088Z" fill="white"/>
<path d="M584.164 337.54C585.003 336.1 585.231 334.051 587.303 333.84C586.643 335.458 586.311 337.405 584.164 337.54Z" fill="white"/>
<path d="M515.183 298.482L512.845 301.817C512.775 300.005 512.744 298.226 515.183 298.482Z" fill="white"/>
<path d="M650.297 244.297C651.435 243.244 650.996 241.025 652.737 240.418C652.079 241.826 652.59 244.098 650.297 244.297Z" fill="white"/>
<path d="M530.672 410.256C530.945 408.554 532.238 407.713 533.266 406.648C533.278 407.481 533.028 408.293 532.556 408.949C532.084 409.605 531.419 410.066 530.672 410.256V410.256Z" fill="white"/>
<path d="M655.301 237.233L657.698 233.523C657.863 235.492 657.518 237.074 655.301 237.233Z" fill="white"/>
<path d="M567.515 232.816C567.49 235.074 566.093 235.481 564.418 235.513L567.515 232.816Z" fill="white"/>
<path d="M690.574 366.323L695.404 366.109C694.69 366.611 693.866 366.895 693.016 366.933C692.167 366.97 691.323 366.76 690.574 366.323Z" fill="white"/>
<path d="M618.458 171.546L616 173.948C616.374 172.612 616.587 171.082 618.458 171.546Z" fill="white"/>
<path d="M692.932 140.577C691.421 140.426 689.99 139.779 688.828 138.721C689.603 138.598 690.394 138.706 691.117 139.033C691.84 139.36 692.467 139.893 692.932 140.577Z" fill="white"/>
<path d="M704.922 365.832C706.55 364.514 708.393 365.332 710.142 365.217C708.516 366.563 706.674 365.75 704.922 365.832Z" fill="white"/>
<path d="M729.465 362.279C730.867 361.676 732.386 361.466 733.883 361.669C732.534 362.924 730.957 362.239 729.465 362.279Z" fill="white"/>
<path d="M568.172 361.392L570.146 358.828C571.117 361.157 569.842 361.454 568.172 361.392Z" fill="white"/>
<path d="M543.793 391.62C544.623 390.667 544.866 389.082 546.346 388.828C545.883 390.175 545.584 391.7 543.793 391.62Z" fill="white"/>
<path d="M572.293 355.172C572.976 354.119 572.648 352.345 574.249 351.945C574.28 353.507 574.04 354.877 572.293 355.172Z" fill="white"/>
<path d="M790.414 346.633L794.464 346.617C793.889 347.114 793.177 347.386 792.442 347.389C791.707 347.392 790.993 347.125 790.414 346.633V346.633Z" fill="white"/>
<path d="M449.605 468.832C449.98 468.232 450.506 467.762 451.12 467.476C451.734 467.19 452.41 467.101 453.069 467.218C452.641 467.753 452.107 468.175 451.507 468.454C450.908 468.734 450.257 468.863 449.605 468.832V468.832Z" fill="white"/>
<path d="M688.034 138.562C686.539 138.453 684.966 138.967 683.586 137.916C685.085 137.99 686.685 137.258 688.034 138.562Z" fill="white"/>
<path d="M637.75 261.97L639.641 258.215C639.798 259.933 639.792 261.554 637.75 261.97Z" fill="white"/>
<path d="M239.255 589.636C238.187 591.426 236.636 590.191 235.312 590.376C236.468 589.132 237.931 589.823 239.255 589.636Z" fill="white"/>
<path d="M580.1 218.641C579.497 219.736 578.598 220.603 577.525 221.124C577.514 220.768 577.576 220.414 577.706 220.086C577.836 219.758 578.03 219.465 578.276 219.228C578.522 218.991 578.813 218.815 579.128 218.713C579.443 218.612 579.775 218.588 580.1 218.641Z" fill="white"/>
<path d="M201.702 593.293L197.652 593.039C197.926 592.751 198.252 592.527 198.609 592.383C198.967 592.238 199.347 592.176 199.728 592.2C200.109 592.224 200.481 592.333 200.821 592.522C201.161 592.71 201.461 592.972 201.702 593.293V593.293Z" fill="white"/>
<path d="M583.829 213.262L581.703 216.171C581.633 215.824 581.636 215.464 581.71 215.118C581.784 214.772 581.928 214.449 582.131 214.171C582.334 213.893 582.592 213.666 582.886 213.509C583.179 213.352 583.501 213.267 583.829 213.262V213.262Z" fill="white"/>
<path d="M618.444 286.946C618.291 285.076 619.849 284.76 620.802 283.895C620.68 284.578 620.399 285.217 619.987 285.751C619.574 286.285 619.043 286.696 618.444 286.946V286.946Z" fill="white"/>
<path d="M675.615 200.132C660.682 190.729 643.453 186.161 629.445 174.735C636.618 167.146 644.176 159.997 652.084 153.323C655.36 151.138 658.909 149.476 662.62 148.387C669.517 145.301 677.063 144.331 684.433 145.582C686.034 145.63 687.608 146.037 689.058 146.776C690.507 147.515 691.8 148.57 692.856 149.876C693.912 151.182 694.708 152.711 695.194 154.366C695.681 156.021 695.847 157.768 695.683 159.495C696.224 164.266 695.688 169.107 694.121 173.604C691.205 181.848 686.393 189.147 680.144 194.807C678.225 196.114 676.661 197.952 675.615 200.132V200.132Z" fill="white"/>
<path d="M485.558 381.867C485.572 385.189 485.091 388.492 484.134 391.647C482.59 396.337 484.171 401.2 482.399 405.74C481.632 407.707 485.863 410.288 488.87 410.049C495.054 409.228 501.053 407.219 506.587 404.117C508.239 403.308 510.85 401.746 509.781 406.303C509.705 407.454 509.876 408.608 510.281 409.675C511.748 415.734 506.167 416.227 503.866 419.315C498.194 426.932 489.398 430.147 482.999 436.818C480.287 438.977 477.322 440.735 474.181 442.045C473.464 442.457 472.513 442.698 472.083 443.342C469.029 447.92 465.687 446.698 462.097 444.223C458.17 441.271 454.043 438.646 449.75 436.372C448.745 435.892 447.985 435.104 448.591 433.573C452.816 423.292 456.181 412.62 458.647 401.686C460.103 394.84 465.106 391.611 469.945 388.185C473.921 385.371 477.912 382.576 481.995 379.954C482.919 379.361 483.725 377.678 485.076 378.582C486.189 379.326 485.34 380.751 485.558 381.867Z" fill="white"/>
<path d="M367.721 334.883C375.512 335.4 377.007 339.083 376.782 348.354C376.58 356.64 370.461 357.483 366.1 360.509C362.685 363.152 358.542 364.456 354.352 364.204C349.906 363.76 348.089 361.4 349.122 356.814C349.793 352.462 351.38 348.336 353.761 344.757C356.142 341.178 359.252 338.243 362.849 336.181C364.356 335.336 366.026 334.892 367.721 334.883V334.883Z" fill="white"/>
</svg>
