<svg width="1000" height="688" viewBox="0 0 1000 688" fill="none" xmlns="http://www.w3.org/2000/svg">
<rect width="1000" height="688" fill="white"/>
<line x1="23" y1="351.5" x2="943" y2="351.5" stroke="#2E2E2E" stroke-width="3" stroke-dasharray="10 10"/>
<path opacity="0.5" d="M123 353H125V493H123V353Z" fill="#2E2E2E"/>
<path opacity="0.5" d="M484 218H486V353H484V218Z" fill="#2E2E2E"/>
<path opacity="0.5" d="M344 351H346V489H344V351Z" fill="#2E2E2E"/>
<path opacity="0.5" d="M603 353H605V488H603V353Z" fill="#2E2E2E"/>
<path d="M841 353H843V493H841V353Z" fill="#3E3DF9"/>
<path opacity="0.5" d="M223 218H225V358H223V218Z" fill="#2E2E2E"/>
<path opacity="0.5" d="M129 493C129 495.761 126.761 498 124 498C121.239 498 119 495.761 119 493C119 490.239 121.239 488 124 488C126.761 488 129 490.239 129 493Z" fill="#2E2E2E"/>
<path opacity="0.5" d="M490 213C490 215.761 487.761 218 485 218C482.239 218 480 215.761 480 213C480 210.239 482.239 208 485 208C487.761 208 490 210.239 490 213Z" fill="#2E2E2E"/>
<path opacity="0.5" d="M706 211C706 213.761 703.761 216 701 216C698.239 216 696 213.761 696 211C696 208.239 698.239 206 701 206C703.761 206 706 208.239 706 211Z" fill="#2E2E2E"/>
<path opacity="0.5" d="M350 494C350 496.761 347.761 499 345 499C342.239 499 340 496.761 340 494C340 491.239 342.239 489 345 489C347.761 489 350 491.239 350 494Z" fill="#2E2E2E"/>
<path opacity="0.5" d="M609 493C609 495.761 606.761 498 604 498C601.239 498 599 495.761 599 493C599 490.239 601.239 488 604 488C606.761 488 609 490.239 609 493Z" fill="#2E2E2E"/>
<path d="M847 493C847 495.761 844.761 498 842 498C839.239 498 837 495.761 837 493C837 490.239 839.239 488 842 488C844.761 488 847 490.239 847 493Z" fill="#3E3DF9"/>
<path d="M908 213C908 215.761 905.761 218 903 218C900.239 218 898 215.761 898 213C898 210.239 900.239 208 903 208C905.761 208 908 210.239 908 213Z" fill="#3E3DF9"/>
<path opacity="0.5" d="M229 213C229 215.761 226.761 218 224 218C221.239 218 219 215.761 219 213C219 210.239 221.239 208 224 208C226.761 208 229 210.239 229 213Z" fill="#2E2E2E"/>
<g opacity="0.5">
<path d="M102.254 522.6V531H105.326C106.634 531 107.666 530.616 108.446 529.848C109.226 529.08 109.622 528.06 109.622 526.8C109.622 525.54 109.226 524.532 108.446 523.764C107.666 522.984 106.634 522.6 105.326 522.6H102.254ZM105.326 523.86C107.162 523.86 108.242 524.94 108.242 526.8C108.242 528.66 107.15 529.74 105.326 529.74H103.598V523.86H105.326ZM113.155 524.796C112.471 524.796 111.919 525 111.499 525.396C111.079 525.792 110.851 526.284 110.827 526.896H112.063C112.063 526.308 112.531 525.936 113.155 525.936C113.815 525.936 114.151 526.296 114.151 527.028V527.304L112.423 527.616C111.235 527.844 110.647 528.432 110.647 529.404C110.647 530.472 111.367 531.132 112.459 531.132C113.287 531.132 113.887 530.82 114.247 530.208L114.307 531H115.435V527.004C115.435 525.576 114.583 524.796 113.155 524.796ZM114.151 528.48C114.151 528.852 114.055 529.164 113.863 529.44C113.611 529.836 113.251 530.028 112.759 530.028C112.231 530.028 111.931 529.764 111.931 529.344C111.931 528.948 112.183 528.684 112.699 528.576L114.151 528.264V528.48ZM120.762 524.928L119.346 528.996L119.226 529.488L119.106 528.996L117.702 524.928H116.334L118.554 530.916L117.582 533.58H118.914L122.13 524.928H120.762ZM127.204 522.6C127 523.428 126.4 523.704 125.092 523.704V524.844H126.868V531H128.212V522.6H127.204ZM131.806 527.316V528.456H135.586V527.316H131.806ZM141.338 522.444C140.57 522.444 139.958 522.684 139.502 523.164C139.046 523.632 138.818 524.28 138.83 525.084H140.174C140.162 524.16 140.606 523.704 141.314 523.704C142.034 523.704 142.394 524.1 142.394 524.88C142.394 525.552 142.154 526.008 141.53 526.764L138.89 530.016V531H143.834V529.74H140.75L142.718 527.268C143.39 526.44 143.75 525.732 143.75 524.82C143.75 523.368 142.886 522.444 141.338 522.444Z" fill="#767676"/>
<path d="M47.2708 535.8V542.488C47.2708 544.264 46.4868 545.16 44.9348 545.16C43.3668 545.16 42.5828 544.264 42.5828 542.488V535.8H40.3748V542.488C40.3748 545.496 42.0388 547.208 44.9348 547.208C47.8308 547.208 49.4788 545.48 49.4788 542.488V535.8H47.2708ZM55.7086 538.712C54.6846 538.712 53.9486 539.128 53.5166 539.944L53.3566 538.888H51.5806V547H53.6446V542.712C53.6446 541.432 54.2366 540.728 55.0846 540.728C55.8526 540.728 56.2366 541.208 56.2366 542.184V547H58.3326V541.736C58.3326 539.864 57.4206 538.712 55.7086 538.712ZM64.9687 538.712C63.8327 538.712 62.9687 539.128 62.3927 539.976L62.2487 538.888H60.4567V550.44H62.5367V546.104C63.0327 546.824 63.8487 547.176 64.9687 547.176C66.0407 547.176 66.9367 546.776 67.6567 545.96C68.3767 545.144 68.7447 544.136 68.7447 542.936C68.7447 541.736 68.3927 540.744 67.6727 539.928C66.9527 539.112 66.0567 538.712 64.9687 538.712ZM64.5367 540.664C65.7047 540.664 66.5847 541.576 66.5847 542.936C66.5847 544.296 65.6887 545.224 64.5367 545.224C63.9927 545.224 63.5127 545.016 63.1127 544.616C62.7127 544.216 62.5047 543.672 62.4887 543V542.904C62.4887 542.216 62.6967 541.672 63.0967 541.272C63.4967 540.872 63.9767 540.664 64.5367 540.664ZM73.3854 538.712C71.5134 538.712 70.2654 539.88 70.1534 541.56H72.1694C72.1694 540.92 72.6814 540.488 73.3854 540.488C74.1374 540.488 74.5214 540.904 74.5214 541.72V542.024L72.4254 542.408C70.8414 542.664 69.9134 543.352 69.9134 544.84C69.9134 546.264 70.9054 547.176 72.3774 547.176C73.4174 547.176 74.1854 546.792 74.6974 546.008L74.8254 547H76.6014V541.672C76.6014 539.736 75.3694 538.712 73.3854 538.712ZM74.5214 543.656C74.5214 544.072 74.4254 544.424 74.2334 544.728C73.9294 545.224 73.4974 545.464 72.9374 545.464C72.3454 545.464 71.9934 545.16 71.9934 544.664C71.9934 544.2 72.2974 543.896 72.9054 543.752L74.5214 543.416V543.656ZM82.1154 538.712C80.9314 538.712 79.9554 539.112 79.1874 539.912C78.4354 540.712 78.0514 541.72 78.0514 542.952C78.0514 544.2 78.4354 545.224 79.1874 546.008C79.9394 546.792 80.9154 547.176 82.1154 547.176C84.0514 547.176 85.5074 546.104 85.8914 544.136H83.8594C83.6674 544.792 83.0274 545.272 82.2114 545.272C81.0434 545.272 80.1954 544.296 80.1954 542.952C80.1954 542.264 80.3874 541.704 80.7554 541.272C81.1234 540.824 81.6034 540.6 82.1634 540.6C82.9794 540.6 83.6034 541.032 83.8434 541.752H85.8594C85.5554 539.768 84.0994 538.712 82.1154 538.712ZM87.5657 535.32V547H89.6457V545.176L90.6537 543.896L92.5417 547H94.9097L92.1097 542.296L94.4937 538.888H92.0137L89.6457 542.168V535.32H87.5657ZM96.1903 538.888V547H98.2703V538.888H96.1903ZM97.2303 535.272C96.5263 535.272 95.9663 535.816 95.9663 536.504C95.9663 537.208 96.5263 537.736 97.2303 537.736C97.9343 537.736 98.4943 537.208 98.4943 536.504C98.4943 535.816 97.9183 535.272 97.2303 535.272ZM104.615 538.712C103.591 538.712 102.855 539.128 102.423 539.944L102.263 538.888H100.487V547H102.551V542.712C102.551 541.432 103.143 540.728 103.991 540.728C104.759 540.728 105.143 541.208 105.143 542.184V547H107.239V541.736C107.239 539.864 106.327 538.712 104.615 538.712ZM113.491 538.888C113.123 538.776 112.723 538.712 112.323 538.712C111.379 538.712 110.595 538.984 109.971 539.528C109.347 540.056 109.043 540.744 109.043 541.592C109.043 542.216 109.235 542.76 109.603 543.24C109.043 543.704 108.771 544.264 108.771 544.952C108.771 545.688 109.091 546.264 109.715 546.696C109.171 547.048 108.899 547.528 108.899 548.12C108.899 549.72 110.163 550.616 112.579 550.616C114.771 550.616 116.163 549.592 116.163 547.8C116.163 546.28 115.187 545.464 113.507 545.464H111.603C111.091 545.464 110.787 545.224 110.787 544.792C110.787 544.552 110.851 544.36 110.979 544.2C111.363 544.344 111.811 544.408 112.323 544.408C113.267 544.408 114.035 544.152 114.627 543.624C115.219 543.096 115.523 542.408 115.523 541.592C115.523 541.288 115.475 540.968 115.363 540.648H116.563V538.888H113.491ZM112.979 547.032C113.747 547.032 114.131 547.336 114.131 547.928C114.131 548.68 113.555 549.064 112.595 549.064C111.571 549.064 110.931 548.68 110.931 547.96C110.931 547.432 111.267 547.096 111.763 547.032H112.979ZM111.091 541.592C111.091 540.808 111.587 540.28 112.307 540.28C113.027 540.28 113.507 540.808 113.507 541.592C113.507 542.344 113.027 542.872 112.307 542.872C111.587 542.872 111.091 542.344 111.091 541.592ZM121.342 536.92L121.326 538.888H119.998V540.776H121.326L121.294 544.552C121.278 546.344 122.158 547.112 123.966 547.112C124.526 547.112 124.974 547.048 125.278 546.936V545.112C125.006 545.192 124.734 545.224 124.43 545.224C123.646 545.224 123.374 544.904 123.374 544.056L123.406 540.776H125.278V538.888H123.422L123.438 536.92H121.342ZM126.924 535.32V547H128.988V542.712C128.988 541.432 129.58 540.728 130.428 540.728C131.196 540.728 131.58 541.208 131.58 542.184V547H133.676V541.736C133.676 539.864 132.764 538.712 131.052 538.712C130.14 538.712 129.452 539.048 128.988 539.736V535.32H126.924ZM139.208 538.712C138.008 538.712 137.048 539.112 136.296 539.912C135.544 540.696 135.176 541.72 135.176 542.952C135.176 544.216 135.544 545.24 136.28 546.024C137.032 546.792 138.008 547.176 139.208 547.176C141.144 547.176 142.408 546.2 142.92 544.456H140.904C140.664 545.08 140.12 545.4 139.272 545.4C138.136 545.4 137.384 544.664 137.32 543.576H142.968V542.936C142.968 540.168 141.448 538.712 139.208 538.712ZM137.336 542.136C137.448 541.128 138.136 540.44 139.16 540.44C140.184 540.44 140.856 541.112 140.872 542.136H137.336ZM152.406 538.712C151.27 538.712 150.406 539.128 149.83 539.976L149.686 538.888H147.894V550.44H149.974V546.104C150.47 546.824 151.286 547.176 152.406 547.176C153.478 547.176 154.374 546.776 155.094 545.96C155.814 545.144 156.182 544.136 156.182 542.936C156.182 541.736 155.83 540.744 155.11 539.928C154.39 539.112 153.494 538.712 152.406 538.712ZM151.974 540.664C153.142 540.664 154.022 541.576 154.022 542.936C154.022 544.296 153.126 545.224 151.974 545.224C151.43 545.224 150.95 545.016 150.55 544.616C150.15 544.216 149.942 543.672 149.926 543V542.904C149.926 542.216 150.134 541.672 150.534 541.272C150.934 540.872 151.414 540.664 151.974 540.664ZM162.199 538.808C160.919 538.808 160.135 539.368 159.831 540.184L159.639 538.888H157.847V547H159.927V542.872C159.959 542.184 160.183 541.688 160.583 541.368C160.999 541.048 161.543 540.888 162.199 540.888V538.808ZM167.229 538.712C165.997 538.712 164.989 539.112 164.189 539.896C163.389 540.68 162.989 541.688 162.989 542.936C162.989 544.184 163.389 545.208 164.189 545.992C164.989 546.776 165.997 547.176 167.229 547.176C168.461 547.176 169.485 546.776 170.285 545.992C171.101 545.208 171.501 544.184 171.501 542.936C171.501 541.688 171.101 540.68 170.285 539.896C169.485 539.112 168.461 538.712 167.229 538.712ZM167.245 540.6C168.509 540.6 169.341 541.576 169.341 542.936C169.341 544.28 168.477 545.272 167.245 545.272C166.621 545.272 166.125 545.048 165.725 544.616C165.325 544.168 165.133 543.608 165.133 542.936C165.133 542.264 165.325 541.704 165.725 541.272C166.125 540.824 166.621 540.6 167.245 540.6ZM173.127 535.32V547H174.903L175.063 545.912C175.639 546.76 176.503 547.176 177.639 547.176C178.711 547.176 179.607 546.776 180.327 545.96C181.047 545.144 181.415 544.136 181.415 542.936C181.415 541.736 181.063 540.744 180.343 539.928C179.623 539.112 178.727 538.712 177.639 538.712C176.535 538.712 175.719 539.064 175.191 539.768V535.32H173.127ZM177.207 540.664C178.359 540.664 179.255 541.592 179.255 542.936C179.255 544.296 178.375 545.224 177.207 545.224C176.647 545.224 176.167 545.032 175.767 544.632C175.367 544.232 175.159 543.672 175.159 542.984V542.888C175.175 542.2 175.383 541.672 175.783 541.272C176.183 540.872 176.663 540.664 177.207 540.664ZM183.065 535.32V547H185.145V535.32H183.065ZM190.818 538.712C189.618 538.712 188.658 539.112 187.906 539.912C187.154 540.696 186.786 541.72 186.786 542.952C186.786 544.216 187.154 545.24 187.89 546.024C188.642 546.792 189.618 547.176 190.818 547.176C192.754 547.176 194.018 546.2 194.53 544.456H192.514C192.274 545.08 191.73 545.4 190.882 545.4C189.746 545.4 188.994 544.664 188.93 543.576H194.578V542.936C194.578 540.168 193.058 538.712 190.818 538.712ZM188.946 542.136C189.058 541.128 189.746 540.44 190.77 540.44C191.794 540.44 192.466 541.112 192.482 542.136H188.946ZM205.051 538.712C203.963 538.712 203.115 539.304 202.715 540.136C202.315 539.192 201.531 538.712 200.395 538.712C199.387 538.712 198.667 539.128 198.235 539.944L198.075 538.888H196.299V547H198.363V542.712C198.363 541.416 198.955 540.728 199.787 540.728C200.539 540.728 200.923 541.208 200.923 542.184V547H203.003V542.616C203.019 541.384 203.611 540.728 204.427 540.728C205.179 540.728 205.563 541.208 205.563 542.184V547H207.643V541.736C207.643 539.864 206.731 538.712 205.051 538.712Z" fill="black"/>
</g>
<g opacity="0.5">
<path d="M329.687 520.6H332.759C334.067 520.6 335.099 520.984 335.879 521.764C336.659 522.532 337.055 523.54 337.055 524.8C337.055 526.06 336.659 527.08 335.879 527.848C335.099 528.616 334.067 529 332.759 529H329.687V520.6ZM332.759 521.86H331.031V527.74H332.759C334.583 527.74 335.675 526.66 335.675 524.8C335.675 522.94 334.595 521.86 332.759 521.86ZM340.588 522.796C342.016 522.796 342.868 523.576 342.868 525.004V529H341.74L341.68 528.208C341.32 528.82 340.72 529.132 339.892 529.132C338.8 529.132 338.08 528.472 338.08 527.404C338.08 526.432 338.668 525.844 339.856 525.616L341.584 525.304V525.028C341.584 524.296 341.248 523.936 340.588 523.936C339.964 523.936 339.496 524.308 339.496 524.896H338.26C338.284 524.284 338.512 523.792 338.932 523.396C339.352 523 339.904 522.796 340.588 522.796ZM341.584 526.48V526.264L340.132 526.576C339.616 526.684 339.364 526.948 339.364 527.344C339.364 527.764 339.664 528.028 340.192 528.028C340.684 528.028 341.044 527.836 341.296 527.44C341.488 527.164 341.584 526.852 341.584 526.48ZM348.195 522.928H349.563L346.347 531.58H345.015L345.987 528.916L343.767 522.928H345.135L346.539 526.996L346.659 527.488L346.779 526.996L348.195 522.928ZM355.49 520.444C356.222 520.444 356.822 520.684 357.29 521.152C357.758 521.62 357.986 522.184 357.986 522.868C357.986 523.744 357.53 524.404 357.014 524.692C357.674 525.016 358.238 525.64 358.238 526.648C358.238 527.368 357.974 527.968 357.446 528.448C356.918 528.916 356.27 529.156 355.49 529.156C354.71 529.156 354.05 528.916 353.522 528.448C352.994 527.968 352.73 527.368 352.73 526.648C352.73 525.676 353.246 524.98 353.954 524.692C353.438 524.392 352.994 523.744 352.994 522.868C352.994 522.184 353.222 521.62 353.678 521.152C354.146 520.684 354.746 520.444 355.49 520.444ZM355.49 525.28C354.71 525.28 354.086 525.808 354.086 526.612C354.086 527.416 354.71 527.92 355.49 527.92C356.27 527.92 356.87 527.416 356.87 526.612C356.87 525.808 356.258 525.28 355.49 525.28ZM355.49 521.692C354.782 521.692 354.314 522.172 354.314 522.904C354.314 523.624 354.782 524.092 355.49 524.092C356.174 524.092 356.654 523.624 356.654 522.904C356.654 522.184 356.162 521.692 355.49 521.692Z" fill="#767676"/>
<path d="M301.347 533.8H304.947C306.147 533.8 307.107 534.136 307.811 534.808C308.531 535.464 308.883 536.344 308.883 537.416C308.883 538.488 308.531 539.352 307.811 540.024C307.091 540.696 306.147 541.032 304.947 541.032H303.539V545H301.347V533.8ZM304.947 535.848H303.539V538.968H304.947C305.987 538.968 306.643 538.392 306.643 537.416C306.643 536.408 305.987 535.848 304.947 535.848ZM310.393 536.888H312.473V545H310.393V536.888ZM311.433 533.272C312.121 533.272 312.697 533.816 312.697 534.504C312.697 535.208 312.137 535.736 311.433 535.736C310.729 535.736 310.169 535.208 310.169 534.504C310.169 533.816 310.729 533.272 311.433 533.272ZM314.706 533.32H316.786V545H314.706V533.32ZM322.666 536.712C323.898 536.712 324.922 537.112 325.722 537.896C326.538 538.68 326.938 539.688 326.938 540.936C326.938 542.184 326.538 543.208 325.722 543.992C324.922 544.776 323.898 545.176 322.666 545.176C321.434 545.176 320.426 544.776 319.626 543.992C318.826 543.208 318.426 542.184 318.426 540.936C318.426 539.688 318.826 538.68 319.626 537.896C320.426 537.112 321.434 536.712 322.666 536.712ZM322.682 538.6C322.058 538.6 321.562 538.824 321.162 539.272C320.762 539.704 320.57 540.264 320.57 540.936C320.57 541.608 320.762 542.168 321.162 542.616C321.562 543.048 322.058 543.272 322.682 543.272C323.914 543.272 324.778 542.28 324.778 540.936C324.778 539.576 323.946 538.6 322.682 538.6ZM329.045 534.92H331.141L331.125 536.888H332.981V538.776H331.109L331.077 542.056C331.077 542.904 331.349 543.224 332.133 543.224C332.437 543.224 332.709 543.192 332.981 543.112V544.936C332.677 545.048 332.229 545.112 331.669 545.112C329.861 545.112 328.981 544.344 328.997 542.552L329.029 538.776H327.701V536.888H329.029L329.045 534.92ZM341.42 534.92H343.516L343.5 536.888H345.356V538.776H343.484L343.452 542.056C343.452 542.904 343.724 543.224 344.508 543.224C344.812 543.224 345.084 543.192 345.356 543.112V544.936C345.052 545.048 344.604 545.112 344.044 545.112C342.236 545.112 341.356 544.344 341.372 542.552L341.404 538.776H340.076V536.888H341.404L341.42 534.92ZM350.458 536.712C352.698 536.712 354.218 538.168 354.218 540.936V541.576H348.57C348.634 542.664 349.386 543.4 350.522 543.4C351.37 543.4 351.914 543.08 352.154 542.456H354.17C353.658 544.2 352.394 545.176 350.458 545.176C349.258 545.176 348.282 544.792 347.53 544.024C346.794 543.24 346.426 542.216 346.426 540.952C346.426 539.72 346.794 538.696 347.546 537.912C348.298 537.112 349.258 536.712 350.458 536.712ZM348.586 540.136H352.122C352.106 539.112 351.434 538.44 350.41 538.44C349.386 538.44 348.698 539.128 348.586 540.136ZM358.516 536.712C360.228 536.712 361.428 537.736 361.492 539.272H359.428C359.412 538.648 359.092 538.344 358.5 538.344C357.924 538.344 357.604 538.648 357.604 539.144C357.604 539.656 357.924 539.88 359.028 540.072C360.948 540.392 361.668 541.176 361.668 542.536C361.668 544.28 360.34 545.176 358.532 545.176C356.564 545.176 355.412 544.152 355.364 542.536H357.412C357.428 543.192 357.828 543.528 358.58 543.528C359.22 543.528 359.588 543.256 359.588 542.76C359.588 542.232 359.268 541.96 358.116 541.752C356.34 541.448 355.524 540.68 355.524 539.352C355.524 538.6 355.78 537.976 356.308 537.48C356.836 536.968 357.572 536.712 358.516 536.712ZM363.779 534.92H365.875L365.859 536.888H367.715V538.776H365.843L365.811 542.056C365.811 542.904 366.083 543.224 366.867 543.224C367.171 543.224 367.443 543.192 367.715 543.112V544.936C367.411 545.048 366.963 545.112 366.403 545.112C364.595 545.112 363.715 544.344 363.731 542.552L363.763 538.776H362.435V536.888H363.763L363.779 534.92ZM369.378 536.888H371.458V545H369.378V536.888ZM370.418 533.272C371.106 533.272 371.682 533.816 371.682 534.504C371.682 535.208 371.122 535.736 370.418 535.736C369.714 535.736 369.154 535.208 369.154 534.504C369.154 533.816 369.714 533.272 370.418 533.272ZM377.802 536.712C379.514 536.712 380.426 537.864 380.426 539.736V545H378.33V540.184C378.33 539.208 377.946 538.728 377.178 538.728C376.33 538.728 375.738 539.432 375.738 540.712V545H373.674V536.888H375.45L375.61 537.944C376.042 537.128 376.778 536.712 377.802 536.712ZM386.678 536.888H389.75V538.648H388.55C388.662 538.968 388.71 539.288 388.71 539.592C388.71 540.408 388.406 541.096 387.814 541.624C387.222 542.152 386.454 542.408 385.51 542.408C384.998 542.408 384.55 542.344 384.166 542.2C384.038 542.36 383.974 542.552 383.974 542.792C383.974 543.224 384.278 543.464 384.79 543.464H386.694C388.374 543.464 389.35 544.28 389.35 545.8C389.35 547.592 387.958 548.616 385.766 548.616C383.35 548.616 382.086 547.72 382.086 546.12C382.086 545.528 382.358 545.048 382.902 544.696C382.278 544.264 381.958 543.688 381.958 542.952C381.958 542.264 382.23 541.704 382.79 541.24C382.422 540.76 382.23 540.216 382.23 539.592C382.23 538.744 382.534 538.056 383.158 537.528C383.782 536.984 384.566 536.712 385.51 536.712C385.91 536.712 386.31 536.776 386.678 536.888ZM386.166 545.032H384.95C384.454 545.096 384.118 545.432 384.118 545.96C384.118 546.68 384.758 547.064 385.782 547.064C386.742 547.064 387.318 546.68 387.318 545.928C387.318 545.336 386.934 545.032 386.166 545.032ZM384.278 539.592C384.278 540.344 384.774 540.872 385.494 540.872C386.214 540.872 386.694 540.344 386.694 539.592C386.694 538.808 386.214 538.28 385.494 538.28C384.774 538.28 384.278 538.808 384.278 539.592Z" fill="black"/>
</g>
<g opacity="0.5">
<path d="M579.142 520.6V529H582.214C583.522 529 584.554 528.616 585.334 527.848C586.114 527.08 586.51 526.06 586.51 524.8C586.51 523.54 586.114 522.532 585.334 521.764C584.554 520.984 583.522 520.6 582.214 520.6H579.142ZM582.214 521.86C584.05 521.86 585.13 522.94 585.13 524.8C585.13 526.66 584.038 527.74 582.214 527.74H580.486V521.86H582.214ZM590.044 522.796C589.36 522.796 588.808 523 588.388 523.396C587.968 523.792 587.74 524.284 587.716 524.896H588.952C588.952 524.308 589.42 523.936 590.044 523.936C590.704 523.936 591.04 524.296 591.04 525.028V525.304L589.312 525.616C588.124 525.844 587.536 526.432 587.536 527.404C587.536 528.472 588.256 529.132 589.348 529.132C590.176 529.132 590.776 528.82 591.136 528.208L591.196 529H592.324V525.004C592.324 523.576 591.472 522.796 590.044 522.796ZM591.04 526.48C591.04 526.852 590.944 527.164 590.752 527.44C590.5 527.836 590.14 528.028 589.648 528.028C589.12 528.028 588.82 527.764 588.82 527.344C588.82 526.948 589.072 526.684 589.588 526.576L591.04 526.264V526.48ZM597.65 522.928L596.234 526.996L596.114 527.488L595.994 526.996L594.59 522.928H593.222L595.442 528.916L594.47 531.58H595.802L599.018 522.928H597.65ZM604.093 520.6C603.889 521.428 603.289 521.704 601.981 521.704V522.844H603.757V529H605.101V520.6H604.093ZM608.429 520.6C608.225 521.428 607.625 521.704 606.317 521.704V522.844H608.093V529H609.437V520.6H608.429ZM613.03 525.316V526.456H616.81V525.316H613.03ZM621.999 520.6C621.795 521.428 621.195 521.704 619.887 521.704V522.844H621.663V529H623.007V520.6H621.999ZM627.031 520.444C625.507 520.444 624.535 521.44 624.535 523.036H625.879C625.879 522.16 626.371 521.704 627.043 521.704C627.751 521.704 628.147 522.16 628.147 522.892C628.147 523.708 627.691 524.068 626.683 524.068H626.323V525.244H626.695C627.799 525.244 628.423 525.712 628.423 526.612C628.423 527.392 627.907 527.896 627.127 527.896C626.275 527.896 625.723 527.44 625.711 526.516H624.367C624.367 528.184 625.411 529.156 627.091 529.156C627.895 529.156 628.555 528.928 629.047 528.472C629.539 528.016 629.791 527.416 629.791 526.66C629.791 525.556 629.167 524.86 628.387 524.632C628.999 524.404 629.503 523.792 629.503 522.844C629.503 522.148 629.287 521.572 628.843 521.128C628.399 520.672 627.799 520.444 627.031 520.444Z" fill="#767676"/>
<path d="M557.029 533.8L552.693 545H555.077L556.005 542.52H560.469L561.397 545H563.781L559.445 533.8H557.029ZM558.437 537.096L559.765 540.6H556.693L558.021 537.096L558.229 536.472L558.437 537.096ZM569.248 536.712C568.224 536.712 567.488 537.128 567.056 537.944L566.896 536.888H565.12V545H567.184V540.712C567.184 539.432 567.776 538.728 568.624 538.728C569.392 538.728 569.776 539.208 569.776 540.184V545H571.872V539.736C571.872 537.864 570.96 536.712 569.248 536.712ZM576.956 536.712C575.084 536.712 573.836 537.88 573.724 539.56H575.74C575.74 538.92 576.252 538.488 576.956 538.488C577.708 538.488 578.092 538.904 578.092 539.72V540.024L575.996 540.408C574.412 540.664 573.484 541.352 573.484 542.84C573.484 544.264 574.476 545.176 575.948 545.176C576.988 545.176 577.756 544.792 578.268 544.008L578.396 545H580.172V539.672C580.172 537.736 578.94 536.712 576.956 536.712ZM578.092 541.656C578.092 542.072 577.996 542.424 577.804 542.728C577.5 543.224 577.068 543.464 576.508 543.464C575.916 543.464 575.564 543.16 575.564 542.664C575.564 542.2 575.868 541.896 576.476 541.752L578.092 541.416V541.656ZM582.214 533.32V545H584.294V533.32H582.214ZM591.278 536.888L589.694 541.864L589.534 542.568L589.374 541.864L587.79 536.888H585.55L588.43 544.904L587.198 548.44H589.358L593.534 536.888H591.278ZM594.326 536.888V538.696H597.974L594.31 543.448V545H600.95V543.192H597.078L600.742 538.44V536.888H594.326ZM602.511 536.888V545H604.591V536.888H602.511ZM603.551 533.272C602.847 533.272 602.287 533.816 602.287 534.504C602.287 535.208 602.847 535.736 603.551 535.736C604.255 535.736 604.815 535.208 604.815 534.504C604.815 533.816 604.239 533.272 603.551 533.272ZM610.935 536.712C609.911 536.712 609.175 537.128 608.743 537.944L608.583 536.888H606.807V545H608.871V540.712C608.871 539.432 609.463 538.728 610.311 538.728C611.079 538.728 611.463 539.208 611.463 540.184V545H613.559V539.736C613.559 537.864 612.647 536.712 610.935 536.712ZM619.811 536.888C619.443 536.776 619.043 536.712 618.643 536.712C617.699 536.712 616.915 536.984 616.291 537.528C615.667 538.056 615.363 538.744 615.363 539.592C615.363 540.216 615.555 540.76 615.923 541.24C615.363 541.704 615.091 542.264 615.091 542.952C615.091 543.688 615.411 544.264 616.035 544.696C615.491 545.048 615.219 545.528 615.219 546.12C615.219 547.72 616.483 548.616 618.899 548.616C621.091 548.616 622.483 547.592 622.483 545.8C622.483 544.28 621.507 543.464 619.827 543.464H617.923C617.411 543.464 617.107 543.224 617.107 542.792C617.107 542.552 617.171 542.36 617.299 542.2C617.683 542.344 618.131 542.408 618.643 542.408C619.587 542.408 620.355 542.152 620.947 541.624C621.539 541.096 621.843 540.408 621.843 539.592C621.843 539.288 621.795 538.968 621.683 538.648H622.883V536.888H619.811ZM619.299 545.032C620.067 545.032 620.451 545.336 620.451 545.928C620.451 546.68 619.875 547.064 618.915 547.064C617.891 547.064 617.251 546.68 617.251 545.96C617.251 545.432 617.587 545.096 618.083 545.032H619.299ZM617.411 539.592C617.411 538.808 617.907 538.28 618.627 538.28C619.347 538.28 619.827 538.808 619.827 539.592C619.827 540.344 619.347 540.872 618.627 540.872C617.907 540.872 617.411 540.344 617.411 539.592ZM632.814 533.32V537.768C632.286 537.064 631.47 536.712 630.382 536.712C629.294 536.712 628.398 537.112 627.678 537.928C626.958 538.744 626.606 539.736 626.606 540.936C626.606 542.136 626.958 543.144 627.678 543.96C628.398 544.776 629.294 545.176 630.366 545.176C631.502 545.176 632.366 544.76 632.942 543.912L633.102 545H634.894V533.32H632.814ZM630.798 538.664C631.342 538.664 631.822 538.872 632.222 539.272C632.622 539.672 632.83 540.2 632.846 540.888V540.984C632.846 541.672 632.638 542.232 632.238 542.632C631.838 543.032 631.358 543.224 630.798 543.224C629.63 543.224 628.75 542.296 628.75 540.936C628.75 539.592 629.646 538.664 630.798 538.664ZM640.096 536.712C638.224 536.712 636.976 537.88 636.864 539.56H638.88C638.88 538.92 639.392 538.488 640.096 538.488C640.848 538.488 641.232 538.904 641.232 539.72V540.024L639.136 540.408C637.552 540.664 636.624 541.352 636.624 542.84C636.624 544.264 637.616 545.176 639.088 545.176C640.128 545.176 640.896 544.792 641.408 544.008L641.536 545H643.312V539.672C643.312 537.736 642.08 536.712 640.096 536.712ZM641.232 541.656C641.232 542.072 641.136 542.424 640.944 542.728C640.64 543.224 640.208 543.464 639.648 543.464C639.056 543.464 638.704 543.16 638.704 542.664C638.704 542.2 639.008 541.896 639.616 541.752L641.232 541.416V541.656ZM645.818 534.92L645.802 536.888H644.474V538.776H645.802L645.77 542.552C645.754 544.344 646.634 545.112 648.442 545.112C649.002 545.112 649.45 545.048 649.754 544.936V543.112C649.482 543.192 649.21 543.224 648.906 543.224C648.122 543.224 647.85 542.904 647.85 542.056L647.882 538.776H649.754V536.888H647.898L647.914 534.92H645.818ZM654.409 536.712C652.537 536.712 651.289 537.88 651.177 539.56H653.193C653.193 538.92 653.705 538.488 654.409 538.488C655.161 538.488 655.545 538.904 655.545 539.72V540.024L653.449 540.408C651.865 540.664 650.937 541.352 650.937 542.84C650.937 544.264 651.929 545.176 653.401 545.176C654.441 545.176 655.209 544.792 655.721 544.008L655.849 545H657.625V539.672C657.625 537.736 656.393 536.712 654.409 536.712ZM655.545 541.656C655.545 542.072 655.449 542.424 655.257 542.728C654.953 543.224 654.521 543.464 653.961 543.464C653.369 543.464 653.017 543.16 653.017 542.664C653.017 542.2 653.321 541.896 653.929 541.752L655.545 541.416V541.656Z" fill="black"/>
</g>
<path d="M821.505 520.6H824.577C825.885 520.6 826.917 520.984 827.697 521.764C828.477 522.532 828.873 523.54 828.873 524.8C828.873 526.06 828.477 527.08 827.697 527.848C826.917 528.616 825.885 529 824.577 529H821.505V520.6ZM824.577 521.86H822.849V527.74H824.577C826.401 527.74 827.493 526.66 827.493 524.8C827.493 522.94 826.413 521.86 824.577 521.86ZM832.407 522.796C833.835 522.796 834.687 523.576 834.687 525.004V529H833.559L833.499 528.208C833.139 528.82 832.539 529.132 831.711 529.132C830.619 529.132 829.899 528.472 829.899 527.404C829.899 526.432 830.487 525.844 831.675 525.616L833.403 525.304V525.028C833.403 524.296 833.067 523.936 832.407 523.936C831.783 523.936 831.315 524.308 831.315 524.896H830.079C830.103 524.284 830.331 523.792 830.751 523.396C831.171 523 831.723 522.796 832.407 522.796ZM833.403 526.48V526.264L831.951 526.576C831.435 526.684 831.183 526.948 831.183 527.344C831.183 527.764 831.483 528.028 832.011 528.028C832.503 528.028 832.863 527.836 833.115 527.44C833.307 527.164 833.403 526.852 833.403 526.48ZM840.014 522.928H841.382L838.166 531.58H836.834L837.806 528.916L835.586 522.928H836.954L838.358 526.996L838.478 527.488L838.598 526.996L840.014 522.928ZM846.456 520.6H847.464V529H846.12V522.844H844.344V521.704C845.652 521.704 846.252 521.428 846.456 520.6ZM849.22 520.6H853.912V521.86H850.588V523.948C850.912 523.768 851.332 523.672 851.848 523.672C853.336 523.672 854.344 524.62 854.344 526.3C854.344 527.152 854.104 527.848 853.612 528.376C853.132 528.892 852.472 529.156 851.644 529.156C850 529.156 848.98 528.256 848.98 526.636H850.336C850.348 527.488 850.852 527.896 851.656 527.896C852.508 527.896 852.988 527.284 852.988 526.36C852.988 525.436 852.484 524.884 851.62 524.884C851.164 524.884 850.768 525.004 850.42 525.232H849.22V520.6ZM857.503 525.316H861.283V526.456H857.503V525.316ZM866.472 520.6H867.48V529H866.136V522.844H864.36V521.704C865.668 521.704 866.268 521.428 866.472 520.6ZM871.84 520.444C872.548 520.444 873.136 520.672 873.592 521.116C874.06 521.56 874.3 522.136 874.336 522.868H872.968C872.908 522.088 872.524 521.704 871.792 521.704C870.796 521.704 870.292 522.544 870.256 524.5C870.58 524.08 871.204 523.768 871.912 523.768C872.704 523.768 873.328 524.02 873.796 524.512C874.264 525.004 874.504 525.628 874.504 526.396C874.504 527.224 874.252 527.884 873.748 528.4C873.256 528.904 872.608 529.156 871.804 529.156C870.928 529.156 870.244 528.868 869.752 528.304C869.188 527.644 868.9 526.54 868.9 524.992C868.9 521.968 869.824 520.444 871.84 520.444ZM871.756 524.968C871.372 524.968 871.036 525.1 870.76 525.364C870.484 525.628 870.352 525.952 870.34 526.348V526.408C870.34 526.804 870.472 527.164 870.736 527.464C871 527.764 871.336 527.92 871.756 527.92C872.572 527.92 873.124 527.284 873.124 526.42C873.124 525.592 872.56 524.968 871.756 524.968ZM763.644 533.8H765.964L762.556 545H760.236L758.348 538.568L758.188 537.8L758.044 538.568L756.14 545H753.82L750.412 533.8H752.732L754.844 540.936L755.02 541.752L755.164 540.936L757.18 533.8H759.196L761.228 540.936L761.356 541.752L761.532 540.936L763.644 533.8ZM767.323 536.888H769.403V545H767.323V536.888ZM768.363 533.272C769.051 533.272 769.627 533.816 769.627 534.504C769.627 535.208 769.067 535.736 768.363 535.736C767.659 535.736 767.099 535.208 767.099 534.504C767.099 533.816 767.659 533.272 768.363 533.272ZM776.004 536.808V538.888C775.348 538.888 774.804 539.048 774.388 539.368C773.988 539.688 773.764 540.184 773.732 540.872V545H771.652V536.888H773.444L773.636 538.184C773.94 537.368 774.724 536.808 776.004 536.808ZM780.826 536.712C783.066 536.712 784.586 538.168 784.586 540.936V541.576H778.938C779.002 542.664 779.754 543.4 780.89 543.4C781.738 543.4 782.282 543.08 782.522 542.456H784.538C784.026 544.2 782.762 545.176 780.826 545.176C779.626 545.176 778.65 544.792 777.898 544.024C777.162 543.24 776.794 542.216 776.794 540.952C776.794 539.72 777.162 538.696 777.914 537.912C778.666 537.112 779.626 536.712 780.826 536.712ZM778.954 540.136H782.49C782.474 539.112 781.802 538.44 780.778 538.44C779.754 538.44 779.066 539.128 778.954 540.136ZM789.667 533.144C790.035 533.144 790.403 533.192 790.739 533.288V535.144C790.467 535.032 790.179 534.968 789.907 534.968C789.187 534.968 788.835 535.336 788.835 536.088V536.888H790.691V538.776H788.835V545H786.739V538.776H785.459V536.888H786.739V536.04C786.739 534.136 787.763 533.144 789.667 533.144ZM796.426 536.808V538.888C795.77 538.888 795.226 539.048 794.81 539.368C794.41 539.688 794.186 540.184 794.154 540.872V545H792.074V536.888H793.866L794.058 538.184C794.362 537.368 795.146 536.808 796.426 536.808ZM800.784 536.712C802.768 536.712 804 537.736 804 539.672V545H802.224L802.096 544.008C801.584 544.792 800.816 545.176 799.776 545.176C798.304 545.176 797.312 544.264 797.312 542.84C797.312 541.352 798.24 540.664 799.824 540.408L801.92 540.024V539.72C801.92 538.904 801.536 538.488 800.784 538.488C800.08 538.488 799.568 538.92 799.568 539.56H797.552C797.664 537.88 798.912 536.712 800.784 536.712ZM801.92 541.656V541.416L800.304 541.752C799.696 541.896 799.392 542.2 799.392 542.664C799.392 543.16 799.744 543.464 800.336 543.464C800.896 543.464 801.328 543.224 801.632 542.728C801.824 542.424 801.92 542.072 801.92 541.656ZM814.778 536.712C816.458 536.712 817.37 537.864 817.37 539.736V545H815.29V540.184C815.29 539.208 814.906 538.728 814.154 538.728C813.338 538.728 812.746 539.384 812.73 540.616V545H810.65V540.184C810.65 539.208 810.266 538.728 809.514 538.728C808.682 538.728 808.09 539.416 808.09 540.712V545H806.026V536.888H807.802L807.962 537.944C808.394 537.128 809.114 536.712 810.122 536.712C811.258 536.712 812.042 537.192 812.442 538.136C812.842 537.304 813.69 536.712 814.778 536.712ZM819.464 536.888H821.544V545H819.464V536.888ZM820.504 533.272C821.192 533.272 821.768 533.816 821.768 534.504C821.768 535.208 821.208 535.736 820.504 535.736C819.8 535.736 819.24 535.208 819.24 534.504C819.24 533.816 819.8 533.272 820.504 533.272ZM827.888 536.712C829.6 536.712 830.512 537.864 830.512 539.736V545H828.416V540.184C828.416 539.208 828.032 538.728 827.264 538.728C826.416 538.728 825.824 539.432 825.824 540.712V545H823.76V536.888H825.536L825.696 537.944C826.128 537.128 826.864 536.712 827.888 536.712ZM836.764 536.888H839.836V538.648H838.636C838.748 538.968 838.796 539.288 838.796 539.592C838.796 540.408 838.492 541.096 837.9 541.624C837.308 542.152 836.54 542.408 835.596 542.408C835.084 542.408 834.636 542.344 834.252 542.2C834.124 542.36 834.06 542.552 834.06 542.792C834.06 543.224 834.364 543.464 834.876 543.464H836.78C838.46 543.464 839.436 544.28 839.436 545.8C839.436 547.592 838.044 548.616 835.852 548.616C833.436 548.616 832.172 547.72 832.172 546.12C832.172 545.528 832.444 545.048 832.988 544.696C832.364 544.264 832.044 543.688 832.044 542.952C832.044 542.264 832.316 541.704 832.876 541.24C832.508 540.76 832.316 540.216 832.316 539.592C832.316 538.744 832.62 538.056 833.244 537.528C833.868 536.984 834.652 536.712 835.596 536.712C835.996 536.712 836.396 536.776 836.764 536.888ZM836.252 545.032H835.036C834.54 545.096 834.204 545.432 834.204 545.96C834.204 546.68 834.844 547.064 835.868 547.064C836.828 547.064 837.404 546.68 837.404 545.928C837.404 545.336 837.02 545.032 836.252 545.032ZM834.364 539.592C834.364 540.344 834.86 540.872 835.58 540.872C836.3 540.872 836.78 540.344 836.78 539.592C836.78 538.808 836.3 538.28 835.58 538.28C834.86 538.28 834.364 538.808 834.364 539.592ZM853.143 536.888H855.367L852.919 545H850.743L849.271 540.232L847.703 545H845.639L843.191 536.888H845.431L846.663 541.768L846.807 542.632L846.983 541.768L848.359 536.888H850.199L851.575 541.768L851.751 542.632L851.895 541.768L853.143 536.888ZM856.651 536.888H858.731V545H856.651V536.888ZM857.691 533.272C858.379 533.272 858.955 533.816 858.955 534.504C858.955 535.208 858.395 535.736 857.691 535.736C856.987 535.736 856.427 535.208 856.427 534.504C856.427 533.816 856.987 533.272 857.691 533.272ZM861.428 534.92H863.524L863.508 536.888H865.364V538.776H863.492L863.46 542.056C863.46 542.904 863.732 543.224 864.516 543.224C864.82 543.224 865.092 543.192 865.364 543.112V544.936C865.06 545.048 864.612 545.112 864.052 545.112C862.244 545.112 861.364 544.344 861.38 542.552L861.412 538.776H860.084V536.888H861.412L861.428 534.92ZM867.01 533.32H869.074V537.736C869.538 537.048 870.226 536.712 871.138 536.712C872.85 536.712 873.762 537.864 873.762 539.736V545H871.666V540.184C871.666 539.208 871.282 538.728 870.514 538.728C869.666 538.728 869.074 539.432 869.074 540.712V545H867.01V533.32ZM884.627 533.32H886.707V545H884.915L884.755 543.912C884.179 544.76 883.315 545.176 882.179 545.176C881.107 545.176 880.211 544.776 879.491 543.96C878.771 543.144 878.419 542.136 878.419 540.936C878.419 539.736 878.771 538.744 879.491 537.928C880.211 537.112 881.107 536.712 882.195 536.712C883.283 536.712 884.099 537.064 884.627 537.768V533.32ZM882.611 538.664C881.459 538.664 880.563 539.592 880.563 540.936C880.563 542.296 881.443 543.224 882.611 543.224C883.171 543.224 883.651 543.032 884.051 542.632C884.451 542.232 884.659 541.672 884.659 540.984V540.888C884.643 540.2 884.435 539.672 884.035 539.272C883.635 538.872 883.155 538.664 882.611 538.664ZM892.357 536.712C894.597 536.712 896.117 538.168 896.117 540.936V541.576H890.469C890.533 542.664 891.285 543.4 892.421 543.4C893.269 543.4 893.813 543.08 894.053 542.456H896.069C895.557 544.2 894.293 545.176 892.357 545.176C891.157 545.176 890.181 544.792 889.429 544.024C888.693 543.24 888.325 542.216 888.325 540.952C888.325 539.72 888.693 538.696 889.445 537.912C890.197 537.112 891.157 536.712 892.357 536.712ZM890.485 540.136H894.021C894.005 539.112 893.333 538.44 892.309 538.44C891.285 538.44 890.597 539.128 890.485 540.136ZM900.414 536.712C902.126 536.712 903.326 537.736 903.39 539.272H901.326C901.31 538.648 900.99 538.344 900.398 538.344C899.822 538.344 899.502 538.648 899.502 539.144C899.502 539.656 899.822 539.88 900.926 540.072C902.846 540.392 903.566 541.176 903.566 542.536C903.566 544.28 902.238 545.176 900.43 545.176C898.462 545.176 897.31 544.152 897.262 542.536H899.31C899.326 543.192 899.726 543.528 900.478 543.528C901.118 543.528 901.486 543.256 901.486 542.76C901.486 542.232 901.166 541.96 900.014 541.752C898.238 541.448 897.422 540.68 897.422 539.352C897.422 538.6 897.678 537.976 898.206 537.48C898.734 536.968 899.47 536.712 900.414 536.712ZM905.214 536.888H907.294V545H905.214V536.888ZM906.254 533.272C906.942 533.272 907.518 533.816 907.518 534.504C907.518 535.208 906.958 535.736 906.254 535.736C905.55 535.736 904.99 535.208 904.99 534.504C904.99 533.816 905.55 533.272 906.254 533.272ZM913.686 536.888H916.758V538.648H915.558C915.67 538.968 915.718 539.288 915.718 539.592C915.718 540.408 915.414 541.096 914.822 541.624C914.23 542.152 913.462 542.408 912.518 542.408C912.006 542.408 911.558 542.344 911.174 542.2C911.046 542.36 910.982 542.552 910.982 542.792C910.982 543.224 911.286 543.464 911.798 543.464H913.702C915.382 543.464 916.358 544.28 916.358 545.8C916.358 547.592 914.966 548.616 912.774 548.616C910.358 548.616 909.094 547.72 909.094 546.12C909.094 545.528 909.366 545.048 909.91 544.696C909.286 544.264 908.966 543.688 908.966 542.952C908.966 542.264 909.238 541.704 909.798 541.24C909.43 540.76 909.238 540.216 909.238 539.592C909.238 538.744 909.542 538.056 910.166 537.528C910.79 536.984 911.574 536.712 912.518 536.712C912.918 536.712 913.318 536.776 913.686 536.888ZM913.174 545.032H911.958C911.462 545.096 911.126 545.432 911.126 545.96C911.126 546.68 911.766 547.064 912.79 547.064C913.75 547.064 914.326 546.68 914.326 545.928C914.326 545.336 913.942 545.032 913.174 545.032ZM911.286 539.592C911.286 540.344 911.782 540.872 912.502 540.872C913.222 540.872 913.702 540.344 913.702 539.592C913.702 538.808 913.222 538.28 912.502 538.28C911.782 538.28 911.286 538.808 911.286 539.592ZM922.029 536.712C923.741 536.712 924.653 537.864 924.653 539.736V545H922.557V540.184C922.557 539.208 922.173 538.728 921.405 538.728C920.557 538.728 919.965 539.432 919.965 540.712V545H917.901V536.888H919.677L919.837 537.944C920.269 537.128 921.005 536.712 922.029 536.712ZM930.185 536.712C932.425 536.712 933.945 538.168 933.945 540.936V541.576H928.297C928.361 542.664 929.113 543.4 930.249 543.4C931.097 543.4 931.641 543.08 931.881 542.456H933.897C933.385 544.2 932.121 545.176 930.185 545.176C928.985 545.176 928.009 544.792 927.257 544.024C926.521 543.24 926.153 542.216 926.153 540.952C926.153 539.72 926.521 538.696 927.273 537.912C928.025 537.112 928.985 536.712 930.185 536.712ZM928.313 540.136H931.849C931.833 539.112 931.161 538.44 930.137 538.44C929.113 538.44 928.425 539.128 928.313 540.136ZM940.051 536.808V538.888C939.395 538.888 938.851 539.048 938.435 539.368C938.035 539.688 937.811 540.184 937.779 540.872V545H935.699V536.888H937.491L937.683 538.184C937.987 537.368 938.771 536.808 940.051 536.808ZM944.149 536.712C945.861 536.712 947.061 537.736 947.125 539.272H945.061C945.045 538.648 944.725 538.344 944.133 538.344C943.557 538.344 943.237 538.648 943.237 539.144C943.237 539.656 943.557 539.88 944.661 540.072C946.581 540.392 947.301 541.176 947.301 542.536C947.301 544.28 945.973 545.176 944.165 545.176C942.197 545.176 941.045 544.152 940.997 542.536H943.045C943.061 543.192 943.461 543.528 944.213 543.528C944.853 543.528 945.221 543.256 945.221 542.76C945.221 542.232 944.901 541.96 943.749 541.752C941.973 541.448 941.157 540.68 941.157 539.352C941.157 538.6 941.413 537.976 941.941 537.48C942.469 536.968 943.205 536.712 944.149 536.712Z" fill="#3E3DF9"/>
<path d="M862.15 151.6H865.222C866.53 151.6 867.562 151.984 868.342 152.764C869.122 153.532 869.518 154.54 869.518 155.8C869.518 157.06 869.122 158.08 868.342 158.848C867.562 159.616 866.53 160 865.222 160H862.15V151.6ZM865.222 152.86H863.494V158.74H865.222C867.046 158.74 868.138 157.66 868.138 155.8C868.138 153.94 867.058 152.86 865.222 152.86ZM873.051 153.796C874.479 153.796 875.331 154.576 875.331 156.004V160H874.203L874.143 159.208C873.783 159.82 873.183 160.132 872.355 160.132C871.263 160.132 870.543 159.472 870.543 158.404C870.543 157.432 871.131 156.844 872.319 156.616L874.047 156.304V156.028C874.047 155.296 873.711 154.936 873.051 154.936C872.427 154.936 871.959 155.308 871.959 155.896H870.723C870.747 155.284 870.975 154.792 871.395 154.396C871.815 154 872.367 153.796 873.051 153.796ZM874.047 157.48V157.264L872.595 157.576C872.079 157.684 871.827 157.948 871.827 158.344C871.827 158.764 872.127 159.028 872.655 159.028C873.147 159.028 873.507 158.836 873.759 158.44C873.951 158.164 874.047 157.852 874.047 157.48ZM880.658 153.928H882.026L878.81 162.58H877.478L878.45 159.916L876.23 153.928H877.598L879.002 157.996L879.122 158.488L879.242 157.996L880.658 153.928ZM887.101 151.6H888.109V160H886.765V153.844H884.989V152.704C886.297 152.704 886.897 152.428 887.101 151.6ZM892.469 151.444C893.177 151.444 893.765 151.672 894.221 152.116C894.689 152.56 894.929 153.136 894.965 153.868H893.597C893.537 153.088 893.153 152.704 892.421 152.704C891.425 152.704 890.921 153.544 890.885 155.5C891.209 155.08 891.833 154.768 892.541 154.768C893.333 154.768 893.957 155.02 894.425 155.512C894.893 156.004 895.133 156.628 895.133 157.396C895.133 158.224 894.881 158.884 894.377 159.4C893.885 159.904 893.237 160.156 892.433 160.156C891.557 160.156 890.873 159.868 890.381 159.304C889.817 158.644 889.529 157.54 889.529 155.992C889.529 152.968 890.453 151.444 892.469 151.444ZM892.385 155.968C892.001 155.968 891.665 156.1 891.389 156.364C891.113 156.628 890.981 156.952 890.969 157.348V157.408C890.969 157.804 891.101 158.164 891.365 158.464C891.629 158.764 891.965 158.92 892.385 158.92C893.201 158.92 893.753 158.284 893.753 157.42C893.753 156.592 893.189 155.968 892.385 155.968ZM899.307 154.684C899.895 154.096 900.639 153.796 901.551 153.796C902.463 153.796 903.207 154.096 903.795 154.684C904.383 155.272 904.683 156.04 904.683 156.964C904.683 157.888 904.383 158.656 903.795 159.244C903.207 159.832 902.463 160.132 901.551 160.132C900.639 160.132 899.895 159.832 899.307 159.244C898.719 158.656 898.431 157.888 898.431 156.964C898.431 156.04 898.719 155.272 899.307 154.684ZM902.859 155.536C902.535 155.164 902.103 154.972 901.563 154.972C901.023 154.972 900.591 155.164 900.255 155.536C899.919 155.908 899.751 156.388 899.751 156.964C899.751 157.54 899.919 158.02 900.255 158.392C900.591 158.764 901.023 158.956 901.563 158.956C902.103 158.956 902.535 158.764 902.859 158.392C903.195 158.02 903.363 157.54 903.363 156.964C903.363 156.388 903.195 155.908 902.859 155.536ZM908.834 153.796C910.094 153.796 910.802 154.684 910.802 156.064V160H909.518V156.316C909.518 155.488 909.146 155.044 908.486 155.044C907.754 155.044 907.238 155.668 907.238 156.772V160H905.966V153.928H907.07L907.166 154.744C907.466 154.18 908.054 153.796 908.834 153.796ZM919.346 153.928H920.714L918.83 160H917.522L916.214 156.016L914.882 160H913.622L911.738 153.928H913.106L914.21 157.9L914.33 158.5L914.462 157.9L915.674 153.928H916.778L917.99 157.9L918.122 158.5L918.242 157.9L919.346 153.928ZM923.899 153.796C925.327 153.796 926.179 154.576 926.179 156.004V160H925.051L924.991 159.208C924.631 159.82 924.031 160.132 923.203 160.132C922.111 160.132 921.391 159.472 921.391 158.404C921.391 157.432 921.979 156.844 923.167 156.616L924.895 156.304V156.028C924.895 155.296 924.559 154.936 923.899 154.936C923.275 154.936 922.807 155.308 922.807 155.896H921.571C921.595 155.284 921.823 154.792 922.243 154.396C922.663 154 923.215 153.796 923.899 153.796ZM924.895 157.48V157.264L923.443 157.576C922.927 157.684 922.675 157.948 922.675 158.344C922.675 158.764 922.975 159.028 923.503 159.028C923.995 159.028 924.355 158.836 924.607 158.44C924.799 158.164 924.895 157.852 924.895 157.48ZM930.858 153.868V155.152C930.366 155.152 929.958 155.284 929.646 155.56C929.298 155.848 929.13 156.28 929.118 156.844V160H927.846V153.928H928.962L929.07 154.96C929.298 154.336 929.898 153.868 930.858 153.868ZM936.207 151.24H937.479V160H936.363L936.279 159.148C935.823 159.808 935.151 160.132 934.263 160.132C933.435 160.132 932.763 159.832 932.235 159.232C931.707 158.62 931.443 157.864 931.443 156.964C931.443 156.064 931.707 155.308 932.235 154.708C932.775 154.096 933.447 153.796 934.275 153.796C935.151 153.796 935.787 154.096 936.207 154.684V151.24ZM934.503 155.008C933.495 155.008 932.763 155.812 932.763 156.964C932.763 158.128 933.471 158.932 934.491 158.932C934.959 158.932 935.367 158.764 935.703 158.416C936.051 158.068 936.219 157.6 936.219 157.012V156.952C936.219 156.364 936.051 155.896 935.703 155.548C935.355 155.188 934.959 155.008 934.503 155.008ZM941.036 153.796C941.648 153.796 942.14 153.976 942.524 154.324C942.92 154.672 943.124 155.14 943.136 155.716H941.864C941.852 155.164 941.564 154.888 941.012 154.888C940.496 154.888 940.208 155.176 940.208 155.596C940.208 156.028 940.448 156.208 941.312 156.4C942.752 156.688 943.292 157.216 943.292 158.224C943.292 159.436 942.368 160.132 941.072 160.132C939.644 160.132 938.816 159.376 938.78 158.164H940.064C940.076 158.728 940.46 159.052 941.096 159.052C941.684 159.052 942.008 158.776 942.008 158.344C942.008 157.876 941.744 157.66 940.82 157.468C939.512 157.192 938.924 156.676 938.924 155.704C938.924 155.176 939.104 154.732 939.476 154.36C939.848 153.988 940.376 153.796 941.036 153.796ZM841.192 164.8H850.68V166.848H847.032V176H844.84V166.848H841.192V164.8ZM854.972 167.808V169.888C854.316 169.888 853.772 170.048 853.356 170.368C852.956 170.688 852.732 171.184 852.7 171.872V176H850.62V167.888H852.412L852.604 169.184C852.908 168.368 853.692 167.808 854.972 167.808ZM859.331 167.712C861.315 167.712 862.547 168.736 862.547 170.672V176H860.771L860.643 175.008C860.131 175.792 859.363 176.176 858.323 176.176C856.851 176.176 855.859 175.264 855.859 173.84C855.859 172.352 856.787 171.664 858.371 171.408L860.467 171.024V170.72C860.467 169.904 860.083 169.488 859.331 169.488C858.627 169.488 858.115 169.92 858.115 170.56H856.099C856.211 168.88 857.459 167.712 859.331 167.712ZM860.467 172.656V172.416L858.851 172.752C858.243 172.896 857.939 173.2 857.939 173.664C857.939 174.16 858.291 174.464 858.883 174.464C859.443 174.464 859.875 174.224 860.179 173.728C860.371 173.424 860.467 173.072 860.467 172.656ZM868.061 167.712C870.045 167.712 871.501 168.768 871.805 170.752H869.789C869.549 170.032 868.925 169.6 868.109 169.6C867.549 169.6 867.069 169.824 866.701 170.272C866.333 170.704 866.141 171.264 866.141 171.952C866.141 173.296 866.989 174.272 868.157 174.272C868.973 174.272 869.613 173.792 869.805 173.136H871.837C871.453 175.104 869.997 176.176 868.061 176.176C866.861 176.176 865.885 175.792 865.133 175.008C864.381 174.224 863.997 173.2 863.997 171.952C863.997 170.72 864.381 169.712 865.133 168.912C865.901 168.112 866.877 167.712 868.061 167.712ZM873.511 164.32H875.591V171.168L877.959 167.888H880.439L878.055 171.296L880.855 176H878.487L876.599 172.896L875.591 174.176V176H873.511V164.32ZM882.136 167.888H884.216V176H882.136V167.888ZM883.176 164.272C883.864 164.272 884.44 164.816 884.44 165.504C884.44 166.208 883.88 166.736 883.176 166.736C882.472 166.736 881.912 166.208 881.912 165.504C881.912 164.816 882.472 164.272 883.176 164.272ZM890.56 167.712C892.272 167.712 893.184 168.864 893.184 170.736V176H891.088V171.184C891.088 170.208 890.704 169.728 889.936 169.728C889.088 169.728 888.496 170.432 888.496 171.712V176H886.432V167.888H888.208L888.368 168.944C888.8 168.128 889.536 167.712 890.56 167.712ZM899.436 167.888H902.508V169.648H901.308C901.42 169.968 901.468 170.288 901.468 170.592C901.468 171.408 901.164 172.096 900.572 172.624C899.98 173.152 899.212 173.408 898.268 173.408C897.756 173.408 897.308 173.344 896.924 173.2C896.796 173.36 896.732 173.552 896.732 173.792C896.732 174.224 897.036 174.464 897.548 174.464H899.452C901.132 174.464 902.108 175.28 902.108 176.8C902.108 178.592 900.716 179.616 898.524 179.616C896.108 179.616 894.844 178.72 894.844 177.12C894.844 176.528 895.116 176.048 895.66 175.696C895.036 175.264 894.716 174.688 894.716 173.952C894.716 173.264 894.988 172.704 895.548 172.24C895.18 171.76 894.988 171.216 894.988 170.592C894.988 169.744 895.292 169.056 895.916 168.528C896.54 167.984 897.324 167.712 898.268 167.712C898.668 167.712 899.068 167.776 899.436 167.888ZM898.924 176.032H897.708C897.212 176.096 896.876 176.432 896.876 176.96C896.876 177.68 897.516 178.064 898.54 178.064C899.5 178.064 900.076 177.68 900.076 176.928C900.076 176.336 899.692 176.032 898.924 176.032ZM897.036 170.592C897.036 171.344 897.532 171.872 898.252 171.872C898.972 171.872 899.452 171.344 899.452 170.592C899.452 169.808 898.972 169.28 898.252 169.28C897.532 169.28 897.036 169.808 897.036 170.592ZM906.823 167.888H908.903V176H906.823V167.888ZM907.863 164.272C908.551 164.272 909.127 164.816 909.127 165.504C909.127 166.208 908.567 166.736 907.863 166.736C907.159 166.736 906.599 166.208 906.599 165.504C906.599 164.816 907.159 164.272 907.863 164.272ZM919.872 167.712C921.552 167.712 922.464 168.864 922.464 170.736V176H920.384V171.184C920.384 170.208 920 169.728 919.248 169.728C918.432 169.728 917.84 170.384 917.824 171.616V176H915.744V171.184C915.744 170.208 915.36 169.728 914.608 169.728C913.776 169.728 913.184 170.416 913.184 171.712V176H911.12V167.888H912.896L913.056 168.944C913.488 168.128 914.208 167.712 915.216 167.712C916.352 167.712 917.136 168.192 917.536 169.136C917.936 168.304 918.784 167.712 919.872 167.712ZM929.102 167.712C930.19 167.712 931.086 168.112 931.806 168.928C932.526 169.744 932.878 170.736 932.878 171.936C932.878 173.136 932.51 174.144 931.79 174.96C931.07 175.776 930.174 176.176 929.102 176.176C927.982 176.176 927.166 175.824 926.67 175.104V179.44H924.59V167.888H926.382L926.526 168.976C927.102 168.128 927.966 167.712 929.102 167.712ZM928.67 169.664C928.11 169.664 927.63 169.872 927.23 170.272C926.83 170.672 926.622 171.216 926.622 171.904V172C926.638 172.672 926.846 173.216 927.246 173.616C927.646 174.016 928.126 174.224 928.67 174.224C929.822 174.224 930.718 173.296 930.718 171.936C930.718 170.576 929.838 169.664 928.67 169.664ZM937.518 167.712C939.502 167.712 940.734 168.736 940.734 170.672V176H938.958L938.83 175.008C938.318 175.792 937.55 176.176 936.51 176.176C935.038 176.176 934.046 175.264 934.046 173.84C934.046 172.352 934.974 171.664 936.558 171.408L938.654 171.024V170.72C938.654 169.904 938.27 169.488 937.518 169.488C936.814 169.488 936.302 169.92 936.302 170.56H934.286C934.398 168.88 935.646 167.712 937.518 167.712ZM938.654 172.656V172.416L937.038 172.752C936.43 172.896 936.126 173.2 936.126 173.664C936.126 174.16 936.478 174.464 937.07 174.464C937.63 174.464 938.062 174.224 938.366 173.728C938.558 173.424 938.654 173.072 938.654 172.656ZM946.248 167.712C948.232 167.712 949.688 168.768 949.992 170.752H947.976C947.736 170.032 947.112 169.6 946.296 169.6C945.736 169.6 945.256 169.824 944.888 170.272C944.52 170.704 944.328 171.264 944.328 171.952C944.328 173.296 945.176 174.272 946.344 174.272C947.16 174.272 947.8 173.792 947.992 173.136H950.024C949.64 175.104 948.184 176.176 946.248 176.176C945.048 176.176 944.072 175.792 943.32 175.008C942.568 174.224 942.184 173.2 942.184 171.952C942.184 170.72 942.568 169.712 943.32 168.912C944.088 168.112 945.064 167.712 946.248 167.712ZM952.147 165.92H954.243L954.227 167.888H956.083V169.776H954.211L954.179 173.056C954.179 173.904 954.451 174.224 955.235 174.224C955.539 174.224 955.811 174.192 956.083 174.112V175.936C955.779 176.048 955.331 176.112 954.771 176.112C952.963 176.112 952.083 175.344 952.099 173.552L952.131 169.776H950.803V167.888H952.131L952.147 165.92ZM960.305 167.712C962.017 167.712 963.217 168.736 963.281 170.272H961.217C961.201 169.648 960.881 169.344 960.289 169.344C959.713 169.344 959.393 169.648 959.393 170.144C959.393 170.656 959.713 170.88 960.817 171.072C962.737 171.392 963.457 172.176 963.457 173.536C963.457 175.28 962.129 176.176 960.321 176.176C958.353 176.176 957.201 175.152 957.153 173.536H959.201C959.217 174.192 959.617 174.528 960.369 174.528C961.009 174.528 961.377 174.256 961.377 173.76C961.377 173.232 961.057 172.96 959.905 172.752C958.129 172.448 957.313 171.68 957.313 170.352C957.313 169.6 957.569 168.976 958.097 168.48C958.625 167.968 959.361 167.712 960.305 167.712Z" fill="#3E3DF9"/>
<g opacity="0.5">
<path d="M200.451 151.6V160H203.523C204.831 160 205.863 159.616 206.643 158.848C207.423 158.08 207.819 157.06 207.819 155.8C207.819 154.54 207.423 153.532 206.643 152.764C205.863 151.984 204.831 151.6 203.523 151.6H200.451ZM203.523 152.86C205.359 152.86 206.439 153.94 206.439 155.8C206.439 157.66 205.347 158.74 203.523 158.74H201.795V152.86H203.523ZM211.352 153.796C210.668 153.796 210.116 154 209.696 154.396C209.276 154.792 209.048 155.284 209.024 155.896H210.26C210.26 155.308 210.728 154.936 211.352 154.936C212.012 154.936 212.348 155.296 212.348 156.028V156.304L210.62 156.616C209.432 156.844 208.844 157.432 208.844 158.404C208.844 159.472 209.564 160.132 210.656 160.132C211.484 160.132 212.084 159.82 212.444 159.208L212.504 160H213.632V156.004C213.632 154.576 212.78 153.796 211.352 153.796ZM212.348 157.48C212.348 157.852 212.252 158.164 212.06 158.44C211.808 158.836 211.448 159.028 210.956 159.028C210.428 159.028 210.128 158.764 210.128 158.344C210.128 157.948 210.38 157.684 210.896 157.576L212.348 157.264V157.48ZM218.959 153.928L217.543 157.996L217.423 158.488L217.303 157.996L215.899 153.928H214.531L216.751 159.916L215.779 162.58H217.111L220.327 153.928H218.959ZM226.097 151.444C224.573 151.444 223.601 152.44 223.601 154.036H224.945C224.945 153.16 225.437 152.704 226.109 152.704C226.817 152.704 227.213 153.16 227.213 153.892C227.213 154.708 226.757 155.068 225.749 155.068H225.389V156.244H225.761C226.865 156.244 227.489 156.712 227.489 157.612C227.489 158.392 226.973 158.896 226.193 158.896C225.341 158.896 224.789 158.44 224.777 157.516H223.433C223.433 159.184 224.477 160.156 226.157 160.156C226.961 160.156 227.621 159.928 228.113 159.472C228.605 159.016 228.857 158.416 228.857 157.66C228.857 156.556 228.233 155.86 227.453 155.632C228.065 155.404 228.569 154.792 228.569 153.844C228.569 153.148 228.353 152.572 227.909 152.128C227.465 151.672 226.865 151.444 226.097 151.444ZM232.124 156.316V157.456H235.904V156.316H232.124ZM239.077 151.6V152.872H242.641L239.473 160H240.937L244.177 152.692V151.6H239.077Z" fill="#767676"/>
<path d="M126.821 164.592C125.733 164.592 124.869 164.896 124.229 165.52C123.605 166.144 123.285 166.944 123.285 167.936C123.285 169.728 124.325 170.656 126.501 171.36C127.925 171.824 128.485 172.256 128.485 173.008C128.485 173.76 127.925 174.272 127.013 174.272C125.893 174.272 125.301 173.712 125.253 172.576H123.029C123.093 174.768 124.485 176.208 126.981 176.208C128.069 176.208 128.965 175.904 129.653 175.312C130.357 174.704 130.709 173.872 130.709 172.816C130.709 171.104 129.829 170.128 127.477 169.344C126.725 169.072 126.197 168.848 125.925 168.64C125.653 168.432 125.509 168.144 125.509 167.744C125.509 166.976 125.989 166.544 126.773 166.544C127.557 166.544 128.117 167.056 128.133 167.936H130.357C130.277 165.76 128.949 164.592 126.821 164.592ZM135.826 167.712C134.642 167.712 133.666 168.112 132.898 168.912C132.146 169.712 131.762 170.72 131.762 171.952C131.762 173.2 132.146 174.224 132.898 175.008C133.65 175.792 134.626 176.176 135.826 176.176C137.762 176.176 139.218 175.104 139.602 173.136H137.57C137.378 173.792 136.738 174.272 135.922 174.272C134.754 174.272 133.906 173.296 133.906 171.952C133.906 171.264 134.098 170.704 134.466 170.272C134.834 169.824 135.314 169.6 135.874 169.6C136.69 169.6 137.314 170.032 137.554 170.752H139.57C139.266 168.768 137.81 167.712 135.826 167.712ZM144.909 167.712C143.677 167.712 142.669 168.112 141.869 168.896C141.069 169.68 140.669 170.688 140.669 171.936C140.669 173.184 141.069 174.208 141.869 174.992C142.669 175.776 143.677 176.176 144.909 176.176C146.141 176.176 147.165 175.776 147.965 174.992C148.781 174.208 149.181 173.184 149.181 171.936C149.181 170.688 148.781 169.68 147.965 168.896C147.165 168.112 146.141 167.712 144.909 167.712ZM144.925 169.6C146.189 169.6 147.021 170.576 147.021 171.936C147.021 173.28 146.157 174.272 144.925 174.272C144.301 174.272 143.805 174.048 143.405 173.616C143.005 173.168 142.813 172.608 142.813 171.936C142.813 171.264 143.005 170.704 143.405 170.272C143.805 169.824 144.301 169.6 144.925 169.6ZM155.367 167.712C154.231 167.712 153.367 168.128 152.791 168.976L152.647 167.888H150.855V179.44H152.935V175.104C153.431 175.824 154.247 176.176 155.367 176.176C156.439 176.176 157.335 175.776 158.055 174.96C158.775 174.144 159.143 173.136 159.143 171.936C159.143 170.736 158.791 169.744 158.071 168.928C157.351 168.112 156.455 167.712 155.367 167.712ZM154.935 169.664C156.103 169.664 156.983 170.576 156.983 171.936C156.983 173.296 156.087 174.224 154.935 174.224C154.391 174.224 153.911 174.016 153.511 173.616C153.111 173.216 152.903 172.672 152.887 172V171.904C152.887 171.216 153.095 170.672 153.495 170.272C153.895 169.872 154.375 169.664 154.935 169.664ZM160.792 167.888V176H162.872V167.888H160.792ZM161.832 164.272C161.128 164.272 160.568 164.816 160.568 165.504C160.568 166.208 161.128 166.736 161.832 166.736C162.536 166.736 163.096 166.208 163.096 165.504C163.096 164.816 162.52 164.272 161.832 164.272ZM169.216 167.712C168.192 167.712 167.456 168.128 167.024 168.944L166.864 167.888H165.088V176H167.152V171.712C167.152 170.432 167.744 169.728 168.592 169.728C169.36 169.728 169.744 170.208 169.744 171.184V176H171.84V170.736C171.84 168.864 170.928 167.712 169.216 167.712ZM178.093 167.888C177.725 167.776 177.325 167.712 176.924 167.712C175.981 167.712 175.197 167.984 174.573 168.528C173.949 169.056 173.645 169.744 173.645 170.592C173.645 171.216 173.837 171.76 174.205 172.24C173.645 172.704 173.373 173.264 173.373 173.952C173.373 174.688 173.693 175.264 174.317 175.696C173.773 176.048 173.501 176.528 173.501 177.12C173.501 178.72 174.765 179.616 177.181 179.616C179.373 179.616 180.765 178.592 180.765 176.8C180.765 175.28 179.789 174.464 178.109 174.464H176.205C175.693 174.464 175.389 174.224 175.389 173.792C175.389 173.552 175.453 173.36 175.581 173.2C175.965 173.344 176.413 173.408 176.924 173.408C177.869 173.408 178.637 173.152 179.229 172.624C179.821 172.096 180.125 171.408 180.125 170.592C180.125 170.288 180.077 169.968 179.965 169.648H181.165V167.888H178.093ZM177.581 176.032C178.349 176.032 178.733 176.336 178.733 176.928C178.733 177.68 178.157 178.064 177.197 178.064C176.173 178.064 175.533 177.68 175.533 176.96C175.533 176.432 175.869 176.096 176.365 176.032H177.581ZM175.693 170.592C175.693 169.808 176.189 169.28 176.909 169.28C177.629 169.28 178.109 169.808 178.109 170.592C178.109 171.344 177.629 171.872 176.909 171.872C176.189 171.872 175.693 171.344 175.693 170.592ZM182.963 173.696C182.259 173.696 181.715 174.224 181.715 174.912C181.715 175.552 182.147 176.016 182.771 176.08C182.707 176.768 182.547 177.376 182.291 177.904L182.883 178.128C183.651 177.248 184.211 176.08 184.211 175.056C184.211 174.224 183.683 173.696 182.963 173.696ZM193.539 167.712C192.403 167.712 191.539 168.128 190.963 168.976L190.819 167.888H189.027V179.44H191.107V175.104C191.603 175.824 192.419 176.176 193.539 176.176C194.611 176.176 195.507 175.776 196.227 174.96C196.947 174.144 197.315 173.136 197.315 171.936C197.315 170.736 196.963 169.744 196.243 168.928C195.523 168.112 194.627 167.712 193.539 167.712ZM193.107 169.664C194.275 169.664 195.155 170.576 195.155 171.936C195.155 173.296 194.259 174.224 193.107 174.224C192.563 174.224 192.083 174.016 191.683 173.616C191.283 173.216 191.075 172.672 191.059 172V171.904C191.059 171.216 191.267 170.672 191.667 170.272C192.067 169.872 192.547 169.664 193.107 169.664ZM198.964 164.32V176H201.044V164.32H198.964ZM206.268 167.712C204.396 167.712 203.148 168.88 203.036 170.56H205.052C205.052 169.92 205.564 169.488 206.268 169.488C207.02 169.488 207.404 169.904 207.404 170.72V171.024L205.308 171.408C203.724 171.664 202.796 172.352 202.796 173.84C202.796 175.264 203.788 176.176 205.26 176.176C206.3 176.176 207.068 175.792 207.58 175.008L207.708 176H209.484V170.672C209.484 168.736 208.252 167.712 206.268 167.712ZM207.404 172.656C207.404 173.072 207.308 173.424 207.116 173.728C206.812 174.224 206.38 174.464 205.82 174.464C205.228 174.464 204.876 174.16 204.876 173.664C204.876 173.2 205.18 172.896 205.788 172.752L207.404 172.416V172.656ZM215.638 167.712C214.614 167.712 213.878 168.128 213.446 168.944L213.286 167.888H211.51V176H213.574V171.712C213.574 170.432 214.166 169.728 215.014 169.728C215.782 169.728 216.166 170.208 216.166 171.184V176H218.262V170.736C218.262 168.864 217.35 167.712 215.638 167.712ZM224.466 167.712C223.442 167.712 222.706 168.128 222.274 168.944L222.114 167.888H220.338V176H222.402V171.712C222.402 170.432 222.994 169.728 223.842 169.728C224.61 169.728 224.994 170.208 224.994 171.184V176H227.09V170.736C227.09 168.864 226.178 167.712 224.466 167.712ZM229.183 167.888V176H231.263V167.888H229.183ZM230.223 164.272C229.519 164.272 228.959 164.816 228.959 165.504C228.959 166.208 229.519 166.736 230.223 166.736C230.927 166.736 231.487 166.208 231.487 165.504C231.487 164.816 230.911 164.272 230.223 164.272ZM237.607 167.712C236.583 167.712 235.847 168.128 235.415 168.944L235.255 167.888H233.479V176H235.543V171.712C235.543 170.432 236.135 169.728 236.983 169.728C237.751 169.728 238.135 170.208 238.135 171.184V176H240.231V170.736C240.231 168.864 239.319 167.712 237.607 167.712ZM246.483 167.888C246.115 167.776 245.715 167.712 245.315 167.712C244.371 167.712 243.587 167.984 242.963 168.528C242.339 169.056 242.035 169.744 242.035 170.592C242.035 171.216 242.227 171.76 242.595 172.24C242.035 172.704 241.763 173.264 241.763 173.952C241.763 174.688 242.083 175.264 242.707 175.696C242.163 176.048 241.891 176.528 241.891 177.12C241.891 178.72 243.155 179.616 245.571 179.616C247.763 179.616 249.155 178.592 249.155 176.8C249.155 175.28 248.179 174.464 246.499 174.464H244.595C244.083 174.464 243.779 174.224 243.779 173.792C243.779 173.552 243.843 173.36 243.971 173.2C244.355 173.344 244.803 173.408 245.315 173.408C246.259 173.408 247.027 173.152 247.619 172.624C248.211 172.096 248.515 171.408 248.515 170.592C248.515 170.288 248.467 169.968 248.355 169.648H249.555V167.888H246.483ZM245.971 176.032C246.739 176.032 247.123 176.336 247.123 176.928C247.123 177.68 246.547 178.064 245.587 178.064C244.563 178.064 243.923 177.68 243.923 176.96C243.923 176.432 244.259 176.096 244.755 176.032H245.971ZM244.083 170.592C244.083 169.808 244.579 169.28 245.299 169.28C246.019 169.28 246.499 169.808 246.499 170.592C246.499 171.344 246.019 171.872 245.299 171.872C244.579 171.872 244.083 171.344 244.083 170.592ZM251.354 173.696C250.65 173.696 250.106 174.224 250.106 174.912C250.106 175.552 250.538 176.016 251.162 176.08C251.098 176.768 250.938 177.376 250.682 177.904L251.274 178.128C252.042 177.248 252.602 176.08 252.602 175.056C252.602 174.224 252.074 173.696 251.354 173.696ZM261.754 167.808C260.474 167.808 259.69 168.368 259.386 169.184L259.194 167.888H257.402V176H259.482V171.872C259.514 171.184 259.738 170.688 260.138 170.368C260.554 170.048 261.098 169.888 261.754 169.888V167.808ZM266.576 167.712C265.376 167.712 264.416 168.112 263.664 168.912C262.912 169.696 262.544 170.72 262.544 171.952C262.544 173.216 262.912 174.24 263.648 175.024C264.4 175.792 265.376 176.176 266.576 176.176C268.512 176.176 269.776 175.2 270.288 173.456H268.272C268.032 174.08 267.488 174.4 266.64 174.4C265.504 174.4 264.752 173.664 264.688 172.576H270.336V171.936C270.336 169.168 268.816 167.712 266.576 167.712ZM264.704 171.136C264.816 170.128 265.504 169.44 266.528 169.44C267.552 169.44 268.224 170.112 268.24 171.136H264.704ZM275.639 167.712C274.455 167.712 273.479 168.112 272.711 168.912C271.959 169.712 271.575 170.72 271.575 171.952C271.575 173.2 271.959 174.224 272.711 175.008C273.463 175.792 274.439 176.176 275.639 176.176C277.575 176.176 279.031 175.104 279.415 173.136H277.383C277.191 173.792 276.551 174.272 275.735 174.272C274.567 174.272 273.719 173.296 273.719 171.952C273.719 171.264 273.911 170.704 274.279 170.272C274.647 169.824 275.127 169.6 275.687 169.6C276.503 169.6 277.127 170.032 277.367 170.752H279.383C279.079 168.768 277.623 167.712 275.639 167.712ZM285.569 167.888V172.24C285.569 173.504 284.993 174.16 284.177 174.16C283.409 174.16 283.025 173.664 283.025 172.688V167.888H280.945V173.152C280.945 175.024 281.841 176.176 283.553 176.176C284.561 176.176 285.265 175.76 285.697 174.944L285.857 176H287.633V167.888H285.569ZM294.222 167.808C292.942 167.808 292.158 168.368 291.854 169.184L291.662 167.888H289.87V176H291.95V171.872C291.982 171.184 292.206 170.688 292.606 170.368C293.022 170.048 293.566 169.888 294.222 169.888V167.808ZM295.761 167.888V176H297.841V167.888H295.761ZM296.801 164.272C296.097 164.272 295.537 164.816 295.537 165.504C295.537 166.208 296.097 166.736 296.801 166.736C297.505 166.736 298.065 166.208 298.065 165.504C298.065 164.816 297.489 164.272 296.801 164.272ZM300.537 165.92L300.521 167.888H299.193V169.776H300.521L300.489 173.552C300.473 175.344 301.353 176.112 303.161 176.112C303.721 176.112 304.169 176.048 304.473 175.936V174.112C304.201 174.192 303.929 174.224 303.625 174.224C302.841 174.224 302.569 173.904 302.569 173.056L302.601 169.776H304.473V167.888H302.617L302.633 165.92H300.537ZM306.136 167.888V176H308.216V167.888H306.136ZM307.176 164.272C306.472 164.272 305.912 164.816 305.912 165.504C305.912 166.208 306.472 166.736 307.176 166.736C307.88 166.736 308.44 166.208 308.44 165.504C308.44 164.816 307.864 164.272 307.176 164.272ZM314.56 167.712C313.536 167.712 312.8 168.128 312.368 168.944L312.208 167.888H310.432V176H312.496V171.712C312.496 170.432 313.088 169.728 313.936 169.728C314.704 169.728 315.088 170.208 315.088 171.184V176H317.184V170.736C317.184 168.864 316.272 167.712 314.56 167.712ZM323.436 167.888C323.068 167.776 322.668 167.712 322.268 167.712C321.324 167.712 320.54 167.984 319.916 168.528C319.292 169.056 318.988 169.744 318.988 170.592C318.988 171.216 319.18 171.76 319.548 172.24C318.988 172.704 318.716 173.264 318.716 173.952C318.716 174.688 319.036 175.264 319.66 175.696C319.116 176.048 318.844 176.528 318.844 177.12C318.844 178.72 320.108 179.616 322.524 179.616C324.716 179.616 326.108 178.592 326.108 176.8C326.108 175.28 325.132 174.464 323.452 174.464H321.548C321.036 174.464 320.732 174.224 320.732 173.792C320.732 173.552 320.796 173.36 320.924 173.2C321.308 173.344 321.756 173.408 322.268 173.408C323.212 173.408 323.98 173.152 324.572 172.624C325.164 172.096 325.468 171.408 325.468 170.592C325.468 170.288 325.42 169.968 325.308 169.648H326.508V167.888H323.436ZM322.924 176.032C323.692 176.032 324.076 176.336 324.076 176.928C324.076 177.68 323.5 178.064 322.54 178.064C321.516 178.064 320.876 177.68 320.876 176.96C320.876 176.432 321.212 176.096 321.708 176.032H322.924ZM321.036 170.592C321.036 169.808 321.532 169.28 322.252 169.28C322.972 169.28 323.452 169.808 323.452 170.592C323.452 171.344 322.972 171.872 322.252 171.872C321.532 171.872 321.036 171.344 321.036 170.592Z" fill="black"/>
</g>
<g opacity="0.5">
<path d="M461.443 151.6V160H464.515C465.823 160 466.855 159.616 467.635 158.848C468.415 158.08 468.811 157.06 468.811 155.8C468.811 154.54 468.415 153.532 467.635 152.764C466.855 151.984 465.823 151.6 464.515 151.6H461.443ZM464.515 152.86C466.351 152.86 467.431 153.94 467.431 155.8C467.431 157.66 466.339 158.74 464.515 158.74H462.787V152.86H464.515ZM472.344 153.796C471.66 153.796 471.108 154 470.688 154.396C470.268 154.792 470.04 155.284 470.016 155.896H471.252C471.252 155.308 471.72 154.936 472.344 154.936C473.004 154.936 473.34 155.296 473.34 156.028V156.304L471.612 156.616C470.424 156.844 469.836 157.432 469.836 158.404C469.836 159.472 470.556 160.132 471.648 160.132C472.476 160.132 473.076 159.82 473.436 159.208L473.496 160H474.624V156.004C474.624 154.576 473.772 153.796 472.344 153.796ZM473.34 157.48C473.34 157.852 473.244 158.164 473.052 158.44C472.8 158.836 472.44 159.028 471.948 159.028C471.42 159.028 471.12 158.764 471.12 158.344C471.12 157.948 471.372 157.684 471.888 157.576L473.34 157.264V157.48ZM479.951 153.928L478.535 157.996L478.415 158.488L478.295 157.996L476.891 153.928H475.523L477.743 159.916L476.771 162.58H478.103L481.319 153.928H479.951ZM487.054 160.156C489.07 160.156 489.994 158.632 489.994 155.608C489.994 154.06 489.706 152.956 489.142 152.296C488.65 151.732 487.966 151.444 487.09 151.444C486.286 151.444 485.638 151.696 485.134 152.212C484.642 152.716 484.39 153.376 484.39 154.204C484.39 154.972 484.618 155.608 485.086 156.1C485.554 156.592 486.19 156.832 486.982 156.832C487.69 156.832 488.314 156.532 488.638 156.112C488.602 158.068 488.098 158.896 487.102 158.896C486.37 158.896 485.986 158.512 485.926 157.732H484.558C484.594 158.464 484.834 159.052 485.29 159.496C485.758 159.94 486.346 160.156 487.054 160.156ZM487.138 155.632C486.334 155.632 485.77 155.008 485.77 154.18C485.77 153.316 486.322 152.68 487.138 152.68C487.558 152.68 487.894 152.836 488.158 153.136C488.422 153.436 488.554 153.796 488.554 154.192C488.554 154.6 488.41 154.948 488.134 155.224C487.858 155.5 487.534 155.632 487.138 155.632ZM493.28 156.316V157.456H497.06V156.316H493.28ZM502.249 151.6C502.045 152.428 501.445 152.704 500.137 152.704V153.844H501.913V160H503.257V151.6H502.249ZM507.149 151.444C506.381 151.444 505.769 151.684 505.313 152.164C504.857 152.632 504.629 153.28 504.641 154.084H505.985C505.973 153.16 506.417 152.704 507.125 152.704C507.845 152.704 508.205 153.1 508.205 153.88C508.205 154.552 507.965 155.008 507.341 155.764L504.701 159.016V160H509.645V158.74H506.561L508.529 156.268C509.201 155.44 509.561 154.732 509.561 153.82C509.561 152.368 508.697 151.444 507.149 151.444Z" fill="#767676"/>
<path d="M430.417 164.8V176H436.865V173.952H432.609V171.28H436.289V169.216H432.609V166.848H436.865V164.8H430.417ZM443.322 167.888L441.834 170.256L440.362 167.888H437.946L440.394 171.872L437.85 176H440.266L441.834 173.44L443.418 176H445.834L443.274 171.872L445.738 167.888H443.322ZM450.357 167.712C449.157 167.712 448.197 168.112 447.445 168.912C446.693 169.696 446.325 170.72 446.325 171.952C446.325 173.216 446.693 174.24 447.429 175.024C448.181 175.792 449.157 176.176 450.357 176.176C452.293 176.176 453.557 175.2 454.069 173.456H452.053C451.813 174.08 451.269 174.4 450.421 174.4C449.285 174.4 448.533 173.664 448.469 172.576H454.117V171.936C454.117 169.168 452.597 167.712 450.357 167.712ZM448.485 171.136C448.597 170.128 449.285 169.44 450.309 169.44C451.333 169.44 452.005 170.112 452.021 171.136H448.485ZM459.42 167.712C458.236 167.712 457.26 168.112 456.492 168.912C455.74 169.712 455.356 170.72 455.356 171.952C455.356 173.2 455.74 174.224 456.492 175.008C457.244 175.792 458.22 176.176 459.42 176.176C461.356 176.176 462.812 175.104 463.196 173.136H461.164C460.972 173.792 460.332 174.272 459.516 174.272C458.348 174.272 457.5 173.296 457.5 171.952C457.5 171.264 457.692 170.704 458.06 170.272C458.428 169.824 458.908 169.6 459.468 169.6C460.284 169.6 460.908 170.032 461.148 170.752H463.164C462.86 168.768 461.404 167.712 459.42 167.712ZM469.35 167.888V172.24C469.35 173.504 468.774 174.16 467.958 174.16C467.19 174.16 466.806 173.664 466.806 172.688V167.888H464.726V173.152C464.726 175.024 465.622 176.176 467.334 176.176C468.342 176.176 469.046 175.76 469.478 174.944L469.638 176H471.414V167.888H469.35ZM474.1 165.92L474.084 167.888H472.756V169.776H474.084L474.052 173.552C474.036 175.344 474.916 176.112 476.724 176.112C477.284 176.112 477.732 176.048 478.036 175.936V174.112C477.764 174.192 477.492 174.224 477.188 174.224C476.404 174.224 476.132 173.904 476.132 173.056L476.164 169.776H478.036V167.888H476.18L476.196 165.92H474.1ZM479.698 167.888V176H481.778V167.888H479.698ZM480.738 164.272C480.034 164.272 479.474 164.816 479.474 165.504C479.474 166.208 480.034 166.736 480.738 166.736C481.442 166.736 482.002 166.208 482.002 165.504C482.002 164.816 481.426 164.272 480.738 164.272ZM488.123 167.712C487.099 167.712 486.363 168.128 485.931 168.944L485.771 167.888H483.995V176H486.059V171.712C486.059 170.432 486.651 169.728 487.499 169.728C488.267 169.728 488.651 170.208 488.651 171.184V176H490.747V170.736C490.747 168.864 489.835 167.712 488.123 167.712ZM496.999 167.888C496.631 167.776 496.231 167.712 495.831 167.712C494.887 167.712 494.103 167.984 493.479 168.528C492.855 169.056 492.551 169.744 492.551 170.592C492.551 171.216 492.743 171.76 493.111 172.24C492.551 172.704 492.279 173.264 492.279 173.952C492.279 174.688 492.599 175.264 493.223 175.696C492.679 176.048 492.407 176.528 492.407 177.12C492.407 178.72 493.671 179.616 496.087 179.616C498.279 179.616 499.671 178.592 499.671 176.8C499.671 175.28 498.695 174.464 497.015 174.464H495.111C494.599 174.464 494.295 174.224 494.295 173.792C494.295 173.552 494.359 173.36 494.487 173.2C494.871 173.344 495.319 173.408 495.831 173.408C496.775 173.408 497.543 173.152 498.135 172.624C498.727 172.096 499.031 171.408 499.031 170.592C499.031 170.288 498.983 169.968 498.871 169.648H500.071V167.888H496.999ZM496.487 176.032C497.255 176.032 497.639 176.336 497.639 176.928C497.639 177.68 497.063 178.064 496.103 178.064C495.079 178.064 494.439 177.68 494.439 176.96C494.439 176.432 494.775 176.096 495.271 176.032H496.487ZM494.599 170.592C494.599 169.808 495.095 169.28 495.815 169.28C496.535 169.28 497.015 169.808 497.015 170.592C497.015 171.344 496.535 171.872 495.815 171.872C495.095 171.872 494.599 171.344 494.599 170.592ZM506.946 167.712C506.002 167.712 505.266 167.968 504.738 168.48C504.21 168.976 503.954 169.6 503.954 170.352C503.954 171.68 504.77 172.448 506.546 172.752C507.698 172.96 508.018 173.232 508.018 173.76C508.018 174.256 507.65 174.528 507.01 174.528C506.258 174.528 505.858 174.192 505.842 173.536H503.794C503.842 175.152 504.994 176.176 506.962 176.176C508.77 176.176 510.098 175.28 510.098 173.536C510.098 172.176 509.378 171.392 507.458 171.072C506.354 170.88 506.034 170.656 506.034 170.144C506.034 169.648 506.354 169.344 506.93 169.344C507.522 169.344 507.842 169.648 507.858 170.272H509.922C509.858 168.736 508.658 167.712 506.946 167.712ZM512.209 165.92L512.193 167.888H510.865V169.776H512.193L512.161 173.552C512.145 175.344 513.025 176.112 514.833 176.112C515.393 176.112 515.841 176.048 516.145 175.936V174.112C515.873 174.192 515.601 174.224 515.297 174.224C514.513 174.224 514.241 173.904 514.241 173.056L514.273 169.776H516.145V167.888H514.289L514.305 165.92H512.209ZM522.304 167.888V172.24C522.304 173.504 521.728 174.16 520.911 174.16C520.144 174.16 519.76 173.664 519.76 172.688V167.888H517.68V173.152C517.68 175.024 518.576 176.176 520.288 176.176C521.296 176.176 522 175.76 522.432 174.944L522.592 176H524.368V167.888H522.304ZM532.205 164.32V168.768C531.677 168.064 530.861 167.712 529.773 167.712C528.685 167.712 527.789 168.112 527.069 168.928C526.349 169.744 525.997 170.736 525.997 171.936C525.997 173.136 526.349 174.144 527.069 174.96C527.789 175.776 528.685 176.176 529.757 176.176C530.893 176.176 531.757 175.76 532.333 174.912L532.493 176H534.285V164.32H532.205ZM530.189 169.664C530.733 169.664 531.213 169.872 531.613 170.272C532.013 170.672 532.221 171.2 532.237 171.888V171.984C532.237 172.672 532.029 173.232 531.629 173.632C531.229 174.032 530.749 174.224 530.189 174.224C529.021 174.224 528.141 173.296 528.141 171.936C528.141 170.592 529.037 169.664 530.189 169.664ZM541.247 167.888L539.663 172.864L539.503 173.568L539.343 172.864L537.759 167.888H535.519L538.399 175.904L537.167 179.44H539.327L543.503 167.888H541.247Z" fill="black"/>
</g>
<g opacity="0.5">
<path d="M684.49 151.6V160H687.562C688.87 160 689.902 159.616 690.682 158.848C691.462 158.08 691.858 157.06 691.858 155.8C691.858 154.54 691.462 153.532 690.682 152.764C689.902 151.984 688.87 151.6 687.562 151.6H684.49ZM687.562 152.86C689.398 152.86 690.478 153.94 690.478 155.8C690.478 157.66 689.386 158.74 687.562 158.74H685.834V152.86H687.562ZM695.391 153.796C694.707 153.796 694.155 154 693.735 154.396C693.315 154.792 693.087 155.284 693.063 155.896H694.299C694.299 155.308 694.767 154.936 695.391 154.936C696.051 154.936 696.387 155.296 696.387 156.028V156.304L694.659 156.616C693.471 156.844 692.883 157.432 692.883 158.404C692.883 159.472 693.603 160.132 694.695 160.132C695.523 160.132 696.123 159.82 696.483 159.208L696.543 160H697.671V156.004C697.671 154.576 696.819 153.796 695.391 153.796ZM696.387 157.48C696.387 157.852 696.291 158.164 696.099 158.44C695.847 158.836 695.487 159.028 694.995 159.028C694.467 159.028 694.167 158.764 694.167 158.344C694.167 157.948 694.419 157.684 694.935 157.576L696.387 157.264V157.48ZM702.998 153.928L701.582 157.996L701.462 158.488L701.342 157.996L699.938 153.928H698.57L700.79 159.916L699.818 162.58H701.15L704.366 153.928H702.998ZM709.44 151.6C709.236 152.428 708.636 152.704 707.328 152.704V153.844H709.104V160H710.448V151.6H709.44ZM714.856 151.6L711.628 157.288V158.38H715.144V160H716.5V158.38H717.628V157.168H716.5V151.6H714.856ZM715.168 157.18H713.068L714.928 153.88L715.168 153.388V157.18Z" fill="#767676"/>
<path d="M650.415 164.592C649.327 164.592 648.463 164.896 647.823 165.52C647.199 166.144 646.879 166.944 646.879 167.936C646.879 169.728 647.919 170.656 650.095 171.36C651.519 171.824 652.079 172.256 652.079 173.008C652.079 173.76 651.519 174.272 650.607 174.272C649.487 174.272 648.895 173.712 648.847 172.576H646.623C646.687 174.768 648.079 176.208 650.575 176.208C651.663 176.208 652.559 175.904 653.247 175.312C653.951 174.704 654.303 173.872 654.303 172.816C654.303 171.104 653.423 170.128 651.071 169.344C650.319 169.072 649.791 168.848 649.519 168.64C649.247 168.432 649.103 168.144 649.103 167.744C649.103 166.976 649.583 166.544 650.367 166.544C651.151 166.544 651.711 167.056 651.727 167.936H653.951C653.871 165.76 652.543 164.592 650.415 164.592ZM655.932 164.32V176H657.996V171.712C657.996 170.432 658.588 169.728 659.436 169.728C660.204 169.728 660.588 170.208 660.588 171.184V176H662.684V170.736C662.684 168.864 661.772 167.712 660.06 167.712C659.148 167.712 658.46 168.048 657.996 168.736V164.32H655.932ZM667.768 167.712C665.896 167.712 664.648 168.88 664.536 170.56H666.552C666.552 169.92 667.064 169.488 667.768 169.488C668.52 169.488 668.904 169.904 668.904 170.72V171.024L666.808 171.408C665.224 171.664 664.296 172.352 664.296 173.84C664.296 175.264 665.288 176.176 666.76 176.176C667.8 176.176 668.568 175.792 669.08 175.008L669.208 176H670.984V170.672C670.984 168.736 669.752 167.712 667.768 167.712ZM668.904 172.656C668.904 173.072 668.808 173.424 668.616 173.728C668.312 174.224 667.88 174.464 667.32 174.464C666.728 174.464 666.376 174.16 666.376 173.664C666.376 173.2 666.68 172.896 667.288 172.752L668.904 172.416V172.656ZM677.394 167.808C676.114 167.808 675.33 168.368 675.026 169.184L674.834 167.888H673.042V176H675.122V171.872C675.154 171.184 675.378 170.688 675.778 170.368C676.194 170.048 676.738 169.888 677.394 169.888V167.808ZM678.933 167.888V176H681.013V167.888H678.933ZM679.973 164.272C679.269 164.272 678.709 164.816 678.709 165.504C678.709 166.208 679.269 166.736 679.973 166.736C680.677 166.736 681.237 166.208 681.237 165.504C681.237 164.816 680.661 164.272 679.973 164.272ZM687.357 167.712C686.333 167.712 685.597 168.128 685.165 168.944L685.005 167.888H683.229V176H685.293V171.712C685.293 170.432 685.885 169.728 686.733 169.728C687.501 169.728 687.885 170.208 687.885 171.184V176H689.981V170.736C689.981 168.864 689.069 167.712 687.357 167.712ZM696.233 167.888C695.865 167.776 695.465 167.712 695.065 167.712C694.121 167.712 693.337 167.984 692.713 168.528C692.089 169.056 691.785 169.744 691.785 170.592C691.785 171.216 691.977 171.76 692.345 172.24C691.785 172.704 691.513 173.264 691.513 173.952C691.513 174.688 691.833 175.264 692.457 175.696C691.913 176.048 691.641 176.528 691.641 177.12C691.641 178.72 692.905 179.616 695.321 179.616C697.513 179.616 698.905 178.592 698.905 176.8C698.905 175.28 697.929 174.464 696.249 174.464H694.345C693.833 174.464 693.529 174.224 693.529 173.792C693.529 173.552 693.593 173.36 693.721 173.2C694.105 173.344 694.553 173.408 695.065 173.408C696.009 173.408 696.777 173.152 697.369 172.624C697.961 172.096 698.265 171.408 698.265 170.592C698.265 170.288 698.217 169.968 698.105 169.648H699.305V167.888H696.233ZM695.721 176.032C696.489 176.032 696.873 176.336 696.873 176.928C696.873 177.68 696.297 178.064 695.337 178.064C694.313 178.064 693.673 177.68 693.673 176.96C693.673 176.432 694.009 176.096 694.505 176.032H695.721ZM693.833 170.592C693.833 169.808 694.329 169.28 695.049 169.28C695.769 169.28 696.249 169.808 696.249 170.592C696.249 171.344 695.769 171.872 695.049 171.872C694.329 171.872 693.833 171.344 693.833 170.592ZM703.62 167.888V176H705.7V167.888H703.62ZM704.66 164.272C703.956 164.272 703.396 164.816 703.396 165.504C703.396 166.208 703.956 166.736 704.66 166.736C705.364 166.736 705.924 166.208 705.924 165.504C705.924 164.816 705.348 164.272 704.66 164.272ZM712.045 167.712C711.021 167.712 710.285 168.128 709.853 168.944L709.693 167.888H707.917V176H709.981V171.712C709.981 170.432 710.573 169.728 711.421 169.728C712.189 169.728 712.573 170.208 712.573 171.184V176H714.669V170.736C714.669 168.864 713.757 167.712 712.045 167.712ZM719.321 167.712C718.377 167.712 717.641 167.968 717.113 168.48C716.585 168.976 716.329 169.6 716.329 170.352C716.329 171.68 717.145 172.448 718.921 172.752C720.073 172.96 720.393 173.232 720.393 173.76C720.393 174.256 720.025 174.528 719.385 174.528C718.633 174.528 718.233 174.192 718.217 173.536H716.169C716.217 175.152 717.369 176.176 719.337 176.176C721.145 176.176 722.473 175.28 722.473 173.536C722.473 172.176 721.753 171.392 719.833 171.072C718.729 170.88 718.409 170.656 718.409 170.144C718.409 169.648 718.729 169.344 719.305 169.344C719.897 169.344 720.217 169.648 720.233 170.272H722.297C722.233 168.736 721.033 167.712 719.321 167.712ZM724.12 167.888V176H726.2V167.888H724.12ZM725.16 164.272C724.456 164.272 723.896 164.816 723.896 165.504C723.896 166.208 724.456 166.736 725.16 166.736C725.864 166.736 726.424 166.208 726.424 165.504C726.424 164.816 725.848 164.272 725.16 164.272ZM732.593 167.888C732.225 167.776 731.825 167.712 731.424 167.712C730.481 167.712 729.697 167.984 729.073 168.528C728.449 169.056 728.145 169.744 728.145 170.592C728.145 171.216 728.337 171.76 728.705 172.24C728.145 172.704 727.873 173.264 727.873 173.952C727.873 174.688 728.193 175.264 728.817 175.696C728.273 176.048 728.001 176.528 728.001 177.12C728.001 178.72 729.265 179.616 731.681 179.616C733.873 179.616 735.265 178.592 735.265 176.8C735.265 175.28 734.289 174.464 732.609 174.464H730.705C730.193 174.464 729.889 174.224 729.889 173.792C729.889 173.552 729.953 173.36 730.081 173.2C730.465 173.344 730.913 173.408 731.424 173.408C732.369 173.408 733.137 173.152 733.729 172.624C734.321 172.096 734.625 171.408 734.625 170.592C734.625 170.288 734.577 169.968 734.465 169.648H735.665V167.888H732.593ZM732.081 176.032C732.849 176.032 733.233 176.336 733.233 176.928C733.233 177.68 732.657 178.064 731.697 178.064C730.673 178.064 730.033 177.68 730.033 176.96C730.033 176.432 730.369 176.096 730.865 176.032H732.081ZM730.193 170.592C730.193 169.808 730.689 169.28 731.409 169.28C732.129 169.28 732.609 169.808 732.609 170.592C732.609 171.344 732.129 171.872 731.409 171.872C730.689 171.872 730.193 171.344 730.193 170.592ZM736.807 164.32V176H738.871V171.712C738.871 170.432 739.463 169.728 740.311 169.728C741.079 169.728 741.463 170.208 741.463 171.184V176H743.559V170.736C743.559 168.864 742.647 167.712 740.935 167.712C740.023 167.712 739.335 168.048 738.871 168.736V164.32H736.807ZM746.115 165.92L746.099 167.888H744.771V169.776H746.099L746.067 173.552C746.051 175.344 746.931 176.112 748.739 176.112C749.299 176.112 749.747 176.048 750.051 175.936V174.112C749.779 174.192 749.507 174.224 749.203 174.224C748.419 174.224 748.147 173.904 748.147 173.056L748.179 169.776H750.051V167.888H748.195L748.211 165.92H746.115ZM754.274 167.712C753.33 167.712 752.594 167.968 752.066 168.48C751.538 168.976 751.282 169.6 751.282 170.352C751.282 171.68 752.098 172.448 753.874 172.752C755.026 172.96 755.346 173.232 755.346 173.76C755.346 174.256 754.978 174.528 754.338 174.528C753.586 174.528 753.186 174.192 753.17 173.536H751.122C751.17 175.152 752.322 176.176 754.29 176.176C756.098 176.176 757.426 175.28 757.426 173.536C757.426 172.176 756.706 171.392 754.786 171.072C753.682 170.88 753.362 170.656 753.362 170.144C753.362 169.648 753.682 169.344 754.258 169.344C754.85 169.344 755.17 169.648 755.186 170.272H757.25C757.186 168.736 755.986 167.712 754.274 167.712Z" fill="black"/>
</g>
<path opacity="0.5" d="M700 216H702V353H700V216Z" fill="#2E2E2E"/>
<line x1="903" y1="217" x2="903" y2="350" stroke="#3E3DF9" stroke-width="2" stroke-dasharray="4 4"/>
</svg>
